<svg width="425" height="541" viewBox="0 0 425 541" fill="none" xmlns="http://www.w3.org/2000/svg">
<g filter="url(#filter0_d_6_871)">
<rect width="365" height="480.499" transform="translate(25 25)" fill="white"/>
<g clip-path="url(#clip0_6_871)">
<rect x="25" y="25" width="365" height="145" fill="#FFDDDD"/>
<g filter="url(#filter1_ii_6_871)" style="mix-blend-mode:multiply">
<circle cx="208" cy="128" r="43" fill="#FFDDDD"/>
</g>
<g filter="url(#filter2_ii_6_871)" style="mix-blend-mode:multiply">
<circle cx="208" cy="128" r="68" fill="#FFDDDD"/>
</g>
<g filter="url(#filter3_ii_6_871)" style="mix-blend-mode:multiply">
<circle cx="208" cy="128" r="91" fill="#FFDDDD"/>
</g>
</g>
<circle cx="207.5" cy="130.156" r="25.1557" fill="#E72525"/>
<path d="M217.563 119.255L196.6 140.218" stroke="white" stroke-width="4"/>
<path d="M217.562 140.218L196.599 119.255" stroke="white" stroke-width="4"/>
<path d="M106.84 205.311L114.55 184.311H117.82L125.53 205.311H122.32L116.17 187.911L109.99 205.311H106.84ZM110.32 200.121L111.16 197.721H121.03L121.87 200.121H110.32ZM133.971 205.671C132.511 205.671 131.211 205.341 130.071 204.681C128.931 204.001 128.031 203.071 127.371 201.891C126.731 200.711 126.411 199.341 126.411 197.781C126.411 196.201 126.731 194.821 127.371 193.641C128.031 192.441 128.931 191.511 130.071 190.851C131.211 190.171 132.511 189.831 133.971 189.831C135.811 189.831 137.351 190.311 138.591 191.271C139.831 192.231 140.621 193.531 140.961 195.171H137.841C137.641 194.291 137.181 193.611 136.461 193.131C135.761 192.651 134.921 192.411 133.941 192.411C133.141 192.411 132.401 192.621 131.721 193.041C131.041 193.441 130.491 194.041 130.071 194.841C129.671 195.621 129.471 196.591 129.471 197.751C129.471 198.611 129.591 199.381 129.831 200.061C130.071 200.721 130.391 201.281 130.791 201.741C131.211 202.201 131.691 202.551 132.231 202.791C132.771 203.011 133.341 203.121 133.941 203.121C134.601 203.121 135.191 203.021 135.711 202.821C136.251 202.601 136.701 202.281 137.061 201.861C137.441 201.441 137.701 200.941 137.841 200.361H140.961C140.621 201.961 139.831 203.251 138.591 204.231C137.351 205.191 135.811 205.671 133.971 205.671ZM150.861 205.671C149.401 205.671 148.101 205.341 146.961 204.681C145.821 204.001 144.921 203.071 144.261 201.891C143.621 200.711 143.301 199.341 143.301 197.781C143.301 196.201 143.621 194.821 144.261 193.641C144.921 192.441 145.821 191.511 146.961 190.851C148.101 190.171 149.401 189.831 150.861 189.831C152.701 189.831 154.241 190.311 155.481 191.271C156.721 192.231 157.511 193.531 157.851 195.171H154.731C154.531 194.291 154.071 193.611 153.351 193.131C152.651 192.651 151.811 192.411 150.831 192.411C150.031 192.411 149.291 192.621 148.611 193.041C147.931 193.441 147.381 194.041 146.961 194.841C146.561 195.621 146.361 196.591 146.361 197.751C146.361 198.611 146.481 199.381 146.721 200.061C146.961 200.721 147.281 201.281 147.681 201.741C148.101 202.201 148.581 202.551 149.121 202.791C149.661 203.011 150.231 203.121 150.831 203.121C151.491 203.121 152.081 203.021 152.601 202.821C153.141 202.601 153.591 202.281 153.951 201.861C154.331 201.441 154.591 200.941 154.731 200.361H157.851C157.511 201.961 156.721 203.251 155.481 204.231C154.241 205.191 152.701 205.671 150.861 205.671ZM167.601 205.671C166.161 205.671 164.881 205.341 163.761 204.681C162.641 204.021 161.761 203.101 161.121 201.921C160.501 200.741 160.191 199.371 160.191 197.811C160.191 196.211 160.501 194.821 161.121 193.641C161.761 192.441 162.641 191.511 163.761 190.851C164.881 190.171 166.181 189.831 167.661 189.831C169.141 189.831 170.411 190.161 171.471 190.821C172.531 191.481 173.351 192.361 173.931 193.461C174.511 194.541 174.801 195.741 174.801 197.061C174.801 197.261 174.791 197.481 174.771 197.721C174.771 197.941 174.761 198.191 174.741 198.471H162.381V196.341H171.801C171.741 195.081 171.321 194.101 170.541 193.401C169.761 192.681 168.791 192.321 167.631 192.321C166.811 192.321 166.061 192.511 165.381 192.891C164.701 193.251 164.151 193.791 163.731 194.511C163.331 195.211 163.131 196.101 163.131 197.181V198.021C163.131 199.141 163.331 200.091 163.731 200.871C164.151 201.631 164.701 202.211 165.381 202.611C166.061 202.991 166.801 203.181 167.601 203.181C168.561 203.181 169.351 202.971 169.971 202.551C170.591 202.131 171.051 201.561 171.351 200.841H174.351C174.091 201.761 173.651 202.591 173.031 203.331C172.411 204.051 171.641 204.621 170.721 205.041C169.821 205.461 168.781 205.671 167.601 205.671ZM183.385 205.671C182.105 205.671 180.985 205.461 180.025 205.041C179.065 204.621 178.305 204.031 177.745 203.271C177.185 202.511 176.845 201.621 176.725 200.601H179.785C179.885 201.081 180.075 201.521 180.355 201.921C180.655 202.321 181.055 202.641 181.555 202.881C182.075 203.121 182.685 203.241 183.385 203.241C184.045 203.241 184.585 203.151 185.005 202.971C185.445 202.771 185.765 202.511 185.965 202.191C186.165 201.851 186.265 201.491 186.265 201.111C186.265 200.551 186.125 200.131 185.845 199.851C185.585 199.551 185.185 199.321 184.645 199.161C184.125 198.981 183.495 198.821 182.755 198.681C182.055 198.561 181.375 198.401 180.715 198.201C180.075 197.981 179.495 197.711 178.975 197.391C178.475 197.071 178.075 196.671 177.775 196.191C177.475 195.691 177.325 195.081 177.325 194.361C177.325 193.501 177.555 192.731 178.015 192.051C178.475 191.351 179.125 190.811 179.965 190.431C180.825 190.031 181.835 189.831 182.995 189.831C184.675 189.831 186.025 190.231 187.045 191.031C188.065 191.831 188.665 192.961 188.845 194.421H185.935C185.855 193.741 185.555 193.221 185.035 192.861C184.515 192.481 183.825 192.291 182.965 192.291C182.105 192.291 181.445 192.461 180.985 192.801C180.525 193.141 180.295 193.591 180.295 194.151C180.295 194.511 180.425 194.831 180.685 195.111C180.945 195.391 181.325 195.631 181.825 195.831C182.345 196.011 182.975 196.181 183.715 196.341C184.775 196.541 185.725 196.791 186.565 197.091C187.405 197.391 188.075 197.831 188.575 198.411C189.075 198.991 189.325 199.821 189.325 200.901C189.345 201.841 189.105 202.671 188.605 203.391C188.125 204.111 187.435 204.671 186.535 205.071C185.655 205.471 184.605 205.671 183.385 205.671ZM198.107 205.671C196.827 205.671 195.707 205.461 194.747 205.041C193.787 204.621 193.027 204.031 192.467 203.271C191.907 202.511 191.567 201.621 191.447 200.601H194.507C194.607 201.081 194.797 201.521 195.077 201.921C195.377 202.321 195.777 202.641 196.277 202.881C196.797 203.121 197.407 203.241 198.107 203.241C198.767 203.241 199.307 203.151 199.727 202.971C200.167 202.771 200.487 202.511 200.687 202.191C200.887 201.851 200.987 201.491 200.987 201.111C200.987 200.551 200.847 200.131 200.567 199.851C200.307 199.551 199.907 199.321 199.367 199.161C198.847 198.981 198.217 198.821 197.477 198.681C196.777 198.561 196.097 198.401 195.437 198.201C194.797 197.981 194.217 197.711 193.697 197.391C193.197 197.071 192.797 196.671 192.497 196.191C192.197 195.691 192.047 195.081 192.047 194.361C192.047 193.501 192.277 192.731 192.737 192.051C193.197 191.351 193.847 190.811 194.687 190.431C195.547 190.031 196.557 189.831 197.717 189.831C199.397 189.831 200.747 190.231 201.767 191.031C202.787 191.831 203.387 192.961 203.567 194.421H200.657C200.577 193.741 200.277 193.221 199.757 192.861C199.237 192.481 198.547 192.291 197.687 192.291C196.827 192.291 196.167 192.461 195.707 192.801C195.247 193.141 195.017 193.591 195.017 194.151C195.017 194.511 195.147 194.831 195.407 195.111C195.667 195.391 196.047 195.631 196.547 195.831C197.067 196.011 197.697 196.181 198.437 196.341C199.497 196.541 200.447 196.791 201.287 197.091C202.127 197.391 202.797 197.831 203.297 198.411C203.797 198.991 204.047 199.821 204.047 200.901C204.067 201.841 203.827 202.671 203.327 203.391C202.847 204.111 202.157 204.671 201.257 205.071C200.377 205.471 199.327 205.671 198.107 205.671ZM214.205 205.311V184.311H220.655C223.095 184.311 225.115 184.741 226.715 185.601C228.315 186.461 229.495 187.681 230.255 189.261C231.035 190.821 231.425 192.681 231.425 194.841C231.425 197.001 231.035 198.861 230.255 200.421C229.495 201.981 228.315 203.191 226.715 204.051C225.135 204.891 223.115 205.311 220.655 205.311H214.205ZM217.205 202.791H220.535C222.475 202.791 224.015 202.471 225.155 201.831C226.295 201.191 227.105 200.281 227.585 199.101C228.085 197.901 228.335 196.481 228.335 194.841C228.335 193.181 228.085 191.751 227.585 190.551C227.105 189.351 226.295 188.431 225.155 187.791C224.015 187.151 222.475 186.831 220.535 186.831H217.205V202.791ZM241.125 205.671C239.685 205.671 238.405 205.341 237.285 204.681C236.165 204.021 235.285 203.101 234.645 201.921C234.025 200.741 233.715 199.371 233.715 197.811C233.715 196.211 234.025 194.821 234.645 193.641C235.285 192.441 236.165 191.511 237.285 190.851C238.405 190.171 239.705 189.831 241.185 189.831C242.665 189.831 243.935 190.161 244.995 190.821C246.055 191.481 246.875 192.361 247.455 193.461C248.035 194.541 248.325 195.741 248.325 197.061C248.325 197.261 248.315 197.481 248.295 197.721C248.295 197.941 248.285 198.191 248.265 198.471H235.905V196.341H245.325C245.265 195.081 244.845 194.101 244.065 193.401C243.285 192.681 242.315 192.321 241.155 192.321C240.335 192.321 239.585 192.511 238.905 192.891C238.225 193.251 237.675 193.791 237.255 194.511C236.855 195.211 236.655 196.101 236.655 197.181V198.021C236.655 199.141 236.855 200.091 237.255 200.871C237.675 201.631 238.225 202.211 238.905 202.611C239.585 202.991 240.325 203.181 241.125 203.181C242.085 203.181 242.875 202.971 243.495 202.551C244.115 202.131 244.575 201.561 244.875 200.841H247.875C247.615 201.761 247.175 202.591 246.555 203.331C245.935 204.051 245.165 204.621 244.245 205.041C243.345 205.461 242.305 205.671 241.125 205.671ZM251.058 205.311V190.191H253.758L253.938 192.771C254.418 191.871 255.098 191.161 255.978 190.641C256.858 190.101 257.868 189.831 259.008 189.831C260.208 189.831 261.238 190.071 262.098 190.551C262.958 191.031 263.628 191.761 264.108 192.741C264.588 193.701 264.828 194.911 264.828 196.371V205.311H261.828V196.671C261.828 195.271 261.518 194.211 260.898 193.491C260.278 192.771 259.378 192.411 258.198 192.411C257.418 192.411 256.718 192.601 256.098 192.981C255.478 193.341 254.978 193.881 254.598 194.601C254.238 195.321 254.058 196.201 254.058 197.241V205.311H251.058ZM268.275 205.311V190.191H271.275V205.311H268.275ZM269.805 187.341C269.225 187.341 268.745 187.161 268.365 186.801C268.005 186.441 267.825 185.981 267.825 185.421C267.825 184.881 268.005 184.441 268.365 184.101C268.745 183.741 269.225 183.561 269.805 183.561C270.365 183.561 270.835 183.741 271.215 184.101C271.595 184.441 271.785 184.881 271.785 185.421C271.785 185.981 271.595 186.441 271.215 186.801C270.835 187.161 270.365 187.341 269.805 187.341ZM281.805 205.671C280.365 205.671 279.085 205.341 277.965 204.681C276.845 204.021 275.965 203.101 275.325 201.921C274.705 200.741 274.395 199.371 274.395 197.811C274.395 196.211 274.705 194.821 275.325 193.641C275.965 192.441 276.845 191.511 277.965 190.851C279.085 190.171 280.385 189.831 281.865 189.831C283.345 189.831 284.615 190.161 285.675 190.821C286.735 191.481 287.555 192.361 288.135 193.461C288.715 194.541 289.005 195.741 289.005 197.061C289.005 197.261 288.995 197.481 288.975 197.721C288.975 197.941 288.965 198.191 288.945 198.471H276.585V196.341H286.005C285.945 195.081 285.525 194.101 284.745 193.401C283.965 192.681 282.995 192.321 281.835 192.321C281.015 192.321 280.265 192.511 279.585 192.891C278.905 193.251 278.355 193.791 277.935 194.511C277.535 195.211 277.335 196.101 277.335 197.181V198.021C277.335 199.141 277.535 200.091 277.935 200.871C278.355 201.631 278.905 202.211 279.585 202.611C280.265 202.991 281.005 203.181 281.805 203.181C282.765 203.181 283.555 202.971 284.175 202.551C284.795 202.131 285.255 201.561 285.555 200.841H288.555C288.295 201.761 287.855 202.591 287.235 203.331C286.615 204.051 285.845 204.621 284.925 205.041C284.025 205.461 282.985 205.671 281.805 205.671ZM298.458 205.671C297.018 205.671 295.748 205.331 294.648 204.651C293.548 203.951 292.688 203.011 292.068 201.831C291.468 200.631 291.168 199.271 291.168 197.751C291.168 196.211 291.468 194.851 292.068 193.671C292.688 192.491 293.548 191.561 294.648 190.881C295.768 190.181 297.048 189.831 298.488 189.831C299.668 189.831 300.708 190.071 301.608 190.551C302.508 191.011 303.208 191.671 303.708 192.531V183.711H306.708V205.311H304.008L303.708 202.971C303.408 203.431 303.018 203.871 302.538 204.291C302.058 204.691 301.478 205.021 300.798 205.281C300.118 205.541 299.338 205.671 298.458 205.671ZM298.938 203.061C299.878 203.061 300.708 202.841 301.428 202.401C302.148 201.961 302.698 201.341 303.078 200.541C303.478 199.741 303.678 198.811 303.678 197.751C303.678 196.691 303.478 195.771 303.078 194.991C302.698 194.191 302.148 193.571 301.428 193.131C300.708 192.671 299.878 192.441 298.938 192.441C298.038 192.441 297.228 192.671 296.508 193.131C295.788 193.571 295.228 194.191 294.828 194.991C294.428 195.771 294.228 196.691 294.228 197.751C294.228 198.811 294.428 199.741 294.828 200.541C295.228 201.341 295.788 201.961 296.508 202.401C297.228 202.841 298.038 203.061 298.938 203.061Z" fill="black"/>
<path d="M141.104 235.311L138.736 227.247H140.08L141.92 234.047H141.68L143.68 227.247H145.2L147.232 234.031L146.976 234.047L148.8 227.247H150.16L147.808 235.311H146.432L144.32 228.207H144.592L142.48 235.311H141.104ZM153.307 235.311L150.939 227.247H152.283L154.123 234.047H153.883L155.883 227.247H157.403L159.435 234.031L159.179 234.047L161.003 227.247H162.363L160.011 235.311H158.635L156.523 228.207H156.795L154.683 235.311H153.307ZM165.51 235.311L163.142 227.247H164.486L166.326 234.047H166.086L168.086 227.247H169.606L171.638 234.031L171.382 234.047L173.206 227.247H174.566L172.214 235.311H170.838L168.726 228.207H168.998L166.886 235.311H165.51ZM176.014 235.391C175.747 235.391 175.523 235.306 175.342 235.135C175.171 234.954 175.086 234.735 175.086 234.479C175.086 234.223 175.171 234.01 175.342 233.839C175.523 233.658 175.747 233.567 176.014 233.567C176.281 233.567 176.499 233.658 176.67 233.839C176.841 234.01 176.926 234.223 176.926 234.479C176.926 234.735 176.841 234.954 176.67 235.135C176.499 235.306 176.281 235.391 176.014 235.391ZM178.706 238.831V227.247H179.922L180.034 228.559C180.205 228.303 180.423 228.063 180.69 227.839C180.957 227.605 181.277 227.418 181.65 227.279C182.023 227.13 182.45 227.055 182.93 227.055C183.719 227.055 184.402 227.242 184.978 227.615C185.565 227.989 186.018 228.495 186.338 229.135C186.669 229.765 186.834 230.485 186.834 231.295C186.834 232.106 186.669 232.831 186.338 233.471C186.018 234.101 185.565 234.597 184.978 234.959C184.391 235.322 183.703 235.503 182.914 235.503C182.263 235.503 181.687 235.37 181.186 235.103C180.695 234.837 180.317 234.463 180.05 233.983V238.831H178.706ZM182.77 234.335C183.293 234.335 183.757 234.207 184.162 233.951C184.567 233.695 184.882 233.343 185.106 232.895C185.341 232.437 185.458 231.898 185.458 231.279C185.458 230.671 185.341 230.138 185.106 229.679C184.882 229.221 184.567 228.863 184.162 228.607C183.757 228.351 183.293 228.223 182.77 228.223C182.237 228.223 181.767 228.351 181.362 228.607C180.957 228.863 180.642 229.221 180.418 229.679C180.194 230.138 180.082 230.671 180.082 231.279C180.082 231.898 180.194 232.437 180.418 232.895C180.642 233.343 180.957 233.695 181.362 233.951C181.767 234.207 182.237 234.335 182.77 234.335ZM192.322 235.503C191.575 235.503 190.903 235.333 190.306 234.991C189.708 234.639 189.239 234.149 188.898 233.519C188.556 232.879 188.386 232.138 188.386 231.295C188.386 230.431 188.556 229.685 188.898 229.055C189.25 228.415 189.724 227.925 190.322 227.583C190.93 227.231 191.607 227.055 192.354 227.055C193.122 227.055 193.799 227.231 194.386 227.583C194.983 227.925 195.452 228.415 195.794 229.055C196.146 229.685 196.322 230.426 196.322 231.279C196.322 232.133 196.146 232.879 195.794 233.519C195.442 234.149 194.967 234.639 194.37 234.991C193.772 235.333 193.09 235.503 192.322 235.503ZM192.338 234.351C192.796 234.351 193.223 234.239 193.618 234.015C194.012 233.781 194.332 233.434 194.578 232.975C194.823 232.517 194.946 231.951 194.946 231.279C194.946 230.597 194.823 230.031 194.578 229.583C194.343 229.125 194.028 228.783 193.634 228.559C193.25 228.325 192.823 228.207 192.354 228.207C191.906 228.207 191.479 228.325 191.074 228.559C190.679 228.783 190.359 229.125 190.114 229.583C189.879 230.031 189.762 230.597 189.762 231.279C189.762 231.951 189.879 232.517 190.114 232.975C190.359 233.434 190.674 233.781 191.058 234.015C191.452 234.239 191.879 234.351 192.338 234.351ZM198.206 235.311V227.247H199.422L199.518 228.783C199.699 228.421 199.929 228.111 200.206 227.855C200.494 227.599 200.835 227.402 201.23 227.263C201.635 227.125 202.094 227.055 202.606 227.055V228.463H202.11C201.769 228.463 201.443 228.511 201.134 228.607C200.825 228.693 200.547 228.837 200.302 229.039C200.067 229.242 199.881 229.519 199.742 229.871C199.614 230.213 199.55 230.639 199.55 231.151V235.311H198.206ZM204.128 235.311V227.247H205.344L205.408 228.655C205.664 228.154 206.026 227.765 206.496 227.487C206.976 227.199 207.52 227.055 208.128 227.055C208.757 227.055 209.301 227.183 209.76 227.439C210.218 227.685 210.576 228.063 210.832 228.575C211.088 229.077 211.216 229.717 211.216 230.495V235.311H209.872V230.639C209.872 229.829 209.69 229.221 209.328 228.815C208.976 228.41 208.474 228.207 207.824 228.207C207.376 228.207 206.976 228.319 206.624 228.543C206.272 228.757 205.989 229.071 205.776 229.487C205.573 229.893 205.472 230.399 205.472 231.007V235.311H204.128ZM213.315 235.311V223.791H214.659V228.607C214.926 228.127 215.299 227.749 215.779 227.471C216.27 227.194 216.803 227.055 217.379 227.055C217.998 227.055 218.537 227.183 218.995 227.439C219.454 227.685 219.806 228.063 220.051 228.575C220.297 229.087 220.419 229.733 220.419 230.511V235.311H219.091V230.655C219.091 229.845 218.921 229.237 218.579 228.831C218.238 228.415 217.742 228.207 217.091 228.207C216.633 228.207 216.217 228.319 215.843 228.543C215.481 228.767 215.193 229.087 214.979 229.503C214.766 229.919 214.659 230.431 214.659 231.039V235.311H213.315ZM225.446 235.503C224.828 235.503 224.284 235.381 223.814 235.135C223.356 234.89 222.998 234.511 222.742 233.999C222.497 233.487 222.374 232.847 222.374 232.079V227.247H223.718V231.935C223.718 232.735 223.894 233.338 224.246 233.743C224.598 234.149 225.094 234.351 225.734 234.351C226.182 234.351 226.588 234.245 226.95 234.031C227.313 233.807 227.596 233.493 227.798 233.087C228.012 232.671 228.118 232.165 228.118 231.567V227.247H229.462V235.311H228.246L228.166 233.903C227.921 234.405 227.558 234.799 227.078 235.087C226.598 235.365 226.054 235.503 225.446 235.503ZM235.914 235.503C235.456 235.503 235.04 235.439 234.666 235.311C234.304 235.173 233.984 234.991 233.706 234.767C233.429 234.543 233.2 234.282 233.018 233.983L232.906 235.311H231.69V223.791H233.034V228.575C233.29 228.159 233.658 227.802 234.138 227.503C234.618 227.205 235.21 227.055 235.914 227.055C236.693 227.055 237.376 227.242 237.962 227.615C238.549 227.978 239.002 228.479 239.322 229.119C239.653 229.749 239.818 230.469 239.818 231.279C239.818 232.09 239.653 232.815 239.322 233.455C239.002 234.095 238.549 234.597 237.962 234.959C237.376 235.322 236.693 235.503 235.914 235.503ZM235.754 234.335C236.277 234.335 236.741 234.207 237.146 233.951C237.552 233.695 237.866 233.343 238.09 232.895C238.325 232.437 238.442 231.898 238.442 231.279C238.442 230.671 238.325 230.138 238.09 229.679C237.866 229.221 237.552 228.863 237.146 228.607C236.741 228.351 236.277 228.223 235.754 228.223C235.221 228.223 234.752 228.351 234.346 228.607C233.941 228.863 233.626 229.221 233.402 229.679C233.178 230.138 233.066 230.671 233.066 231.279C233.066 231.898 233.178 232.437 233.402 232.895C233.626 233.343 233.941 233.695 234.346 233.951C234.752 234.207 235.221 234.335 235.754 234.335ZM242.186 235.391C241.919 235.391 241.695 235.306 241.514 235.135C241.343 234.954 241.258 234.735 241.258 234.479C241.258 234.223 241.343 234.01 241.514 233.839C241.695 233.658 241.919 233.567 242.186 233.567C242.453 233.567 242.671 233.658 242.842 233.839C243.013 234.01 243.098 234.223 243.098 234.479C243.098 234.735 243.013 234.954 242.842 235.135C242.671 235.306 242.453 235.391 242.186 235.391ZM248.51 235.503C247.752 235.503 247.07 235.327 246.462 234.975C245.864 234.623 245.395 234.133 245.054 233.503C244.712 232.863 244.542 232.127 244.542 231.295C244.542 230.442 244.712 229.701 245.054 229.071C245.395 228.442 245.864 227.951 246.462 227.599C247.07 227.237 247.752 227.055 248.51 227.055C249.47 227.055 250.27 227.306 250.91 227.807C251.55 228.298 251.955 228.959 252.126 229.791H250.75C250.643 229.29 250.382 228.901 249.966 228.623C249.55 228.346 249.059 228.207 248.494 228.207C248.035 228.207 247.608 228.325 247.214 228.559C246.819 228.783 246.504 229.125 246.27 229.583C246.035 230.042 245.918 230.607 245.918 231.279C245.918 231.781 245.987 232.229 246.126 232.623C246.264 233.007 246.451 233.327 246.686 233.583C246.92 233.839 247.192 234.037 247.502 234.175C247.822 234.303 248.152 234.367 248.494 234.367C248.878 234.367 249.224 234.309 249.534 234.191C249.843 234.063 250.104 233.877 250.318 233.631C250.531 233.386 250.675 233.098 250.75 232.767H252.126C251.955 233.578 251.544 234.239 250.894 234.751C250.254 235.253 249.459 235.503 248.51 235.503ZM257.634 235.503C256.887 235.503 256.215 235.333 255.618 234.991C255.021 234.639 254.551 234.149 254.21 233.519C253.869 232.879 253.698 232.138 253.698 231.295C253.698 230.431 253.869 229.685 254.21 229.055C254.562 228.415 255.037 227.925 255.634 227.583C256.242 227.231 256.919 227.055 257.666 227.055C258.434 227.055 259.111 227.231 259.698 227.583C260.295 227.925 260.765 228.415 261.106 229.055C261.458 229.685 261.634 230.426 261.634 231.279C261.634 232.133 261.458 232.879 261.106 233.519C260.754 234.149 260.279 234.639 259.682 234.991C259.085 235.333 258.402 235.503 257.634 235.503ZM257.65 234.351C258.109 234.351 258.535 234.239 258.93 234.015C259.325 233.781 259.645 233.434 259.89 232.975C260.135 232.517 260.258 231.951 260.258 231.279C260.258 230.597 260.135 230.031 259.89 229.583C259.655 229.125 259.341 228.783 258.946 228.559C258.562 228.325 258.135 228.207 257.666 228.207C257.218 228.207 256.791 228.325 256.386 228.559C255.991 228.783 255.671 229.125 255.426 229.583C255.191 230.031 255.074 230.597 255.074 231.279C255.074 231.951 255.191 232.517 255.426 232.975C255.671 233.434 255.986 233.781 256.37 234.015C256.765 234.239 257.191 234.351 257.65 234.351ZM263.518 235.311V227.247H264.734L264.814 228.399C265.07 227.983 265.412 227.658 265.838 227.423C266.276 227.178 266.75 227.055 267.262 227.055C267.678 227.055 268.052 227.114 268.382 227.231C268.724 227.338 269.022 227.509 269.278 227.743C269.534 227.967 269.742 228.255 269.902 228.607C270.18 228.117 270.558 227.738 271.038 227.471C271.529 227.194 272.052 227.055 272.606 227.055C273.225 227.055 273.764 227.183 274.222 227.439C274.692 227.685 275.049 228.063 275.294 228.575C275.55 229.077 275.678 229.717 275.678 230.495V235.311H274.35V230.639C274.35 229.829 274.185 229.221 273.854 228.815C273.524 228.41 273.06 228.207 272.462 228.207C272.046 228.207 271.673 228.319 271.342 228.543C271.012 228.757 270.75 229.071 270.558 229.487C270.366 229.903 270.27 230.415 270.27 231.023V235.311H268.926V230.639C268.926 229.829 268.761 229.221 268.43 228.815C268.1 228.41 267.63 228.207 267.022 228.207C266.617 228.207 266.249 228.319 265.918 228.543C265.598 228.757 265.342 229.071 265.15 229.487C264.958 229.903 264.862 230.415 264.862 231.023V235.311H263.518Z" fill="black"/>
<g filter="url(#filter4_i_6_871)">
<rect x="45" y="280.311" width="325" height="120" rx="5" fill="#F5F5F5" fill-opacity="0.5"/>
<path d="M55.994 304.311V294.511H59.508C60.2827 294.511 60.922 294.647 61.426 294.917C61.9393 295.179 62.3173 295.533 62.56 295.981C62.812 296.42 62.938 296.919 62.938 297.479C62.938 298.002 62.8167 298.487 62.574 298.935C62.3313 299.383 61.9533 299.743 61.44 300.013C60.9267 300.284 60.2687 300.419 59.466 300.419H57.674V304.311H55.994ZM61.104 304.311L59.046 299.985H60.866L63.022 304.311H61.104ZM57.674 299.173H59.396C60.0213 299.173 60.4787 299.024 60.768 298.725C61.0667 298.417 61.216 298.016 61.216 297.521C61.216 297.036 61.0713 296.649 60.782 296.359C60.4927 296.061 60.0307 295.911 59.396 295.911H57.674V299.173ZM67.2376 304.479C66.6683 304.479 66.1783 304.367 65.7676 304.143C65.3663 303.91 65.0583 303.565 64.8436 303.107C64.629 302.641 64.5216 302.067 64.5216 301.385V297.255H66.2016V301.217C66.2016 301.824 66.3276 302.286 66.5796 302.603C66.841 302.911 67.233 303.065 67.7556 303.065C68.0916 303.065 68.3903 302.986 68.6516 302.827C68.9223 302.669 69.1323 302.44 69.2816 302.141C69.4403 301.833 69.5196 301.46 69.5196 301.021V297.255H71.1996V304.311H69.7156L69.5896 303.135C69.375 303.546 69.0623 303.873 68.6516 304.115C68.2503 304.358 67.779 304.479 67.2376 304.479ZM73.0689 304.311V294.231H74.7489V304.311H73.0689ZM79.9275 304.479C79.2275 304.479 78.6115 304.33 78.0795 304.031C77.5475 303.723 77.1322 303.294 76.8335 302.743C76.5349 302.193 76.3855 301.558 76.3855 300.839C76.3855 300.093 76.5302 299.439 76.8195 298.879C77.1182 298.319 77.5335 297.881 78.0655 297.563C78.6069 297.246 79.2322 297.087 79.9415 297.087C80.6322 297.087 81.2342 297.241 81.7475 297.549C82.2609 297.857 82.6575 298.273 82.9375 298.795C83.2175 299.309 83.3575 299.887 83.3575 300.531C83.3575 300.625 83.3575 300.727 83.3575 300.839C83.3575 300.951 83.3482 301.068 83.3295 301.189H77.5895V300.111H81.6635C81.6449 299.598 81.4722 299.197 81.1455 298.907C80.8189 298.609 80.4129 298.459 79.9275 298.459C79.5822 298.459 79.2649 298.539 78.9755 298.697C78.6862 298.856 78.4575 299.094 78.2895 299.411C78.1215 299.719 78.0375 300.111 78.0375 300.587V300.993C78.0375 301.432 78.1169 301.81 78.2755 302.127C78.4435 302.445 78.6675 302.687 78.9475 302.855C79.2369 303.014 79.5589 303.093 79.9135 303.093C80.3055 303.093 80.6275 303.009 80.8795 302.841C81.1409 302.673 81.3322 302.449 81.4535 302.169H83.1615C83.0309 302.608 82.8162 303.005 82.5175 303.359C82.2189 303.705 81.8502 303.98 81.4115 304.185C80.9729 304.381 80.4782 304.479 79.9275 304.479Z" fill="black"/>
<path d="M56.05 326.311V316.511H59.494C60.1847 316.511 60.754 316.623 61.202 316.847C61.6593 317.062 62 317.361 62.224 317.743C62.448 318.117 62.56 318.537 62.56 319.003C62.56 319.507 62.448 319.927 62.224 320.263C62.0093 320.599 61.7247 320.856 61.37 321.033C61.0247 321.211 60.656 321.318 60.264 321.355L60.46 321.215C60.88 321.225 61.2673 321.337 61.622 321.551C61.9767 321.766 62.2567 322.055 62.462 322.419C62.6767 322.783 62.784 323.189 62.784 323.637C62.784 324.132 62.6627 324.585 62.42 324.995C62.1773 325.397 61.818 325.719 61.342 325.961C60.8753 326.195 60.2967 326.311 59.606 326.311H56.05ZM57.226 325.331H59.48C60.1427 325.331 60.656 325.177 61.02 324.869C61.3933 324.552 61.58 324.113 61.58 323.553C61.58 323.003 61.3887 322.564 61.006 322.237C60.6327 321.901 60.1147 321.733 59.452 321.733H57.226V325.331ZM57.226 320.795H59.41C60.0447 320.795 60.5253 320.646 60.852 320.347C61.188 320.049 61.356 319.643 61.356 319.129C61.356 318.635 61.188 318.238 60.852 317.939C60.5253 317.641 60.0307 317.491 59.368 317.491H57.226V320.795ZM64.4155 326.311V316.231H65.5915V326.311H64.4155ZM70.6827 326.479C70.0294 326.479 69.4414 326.33 68.9187 326.031C68.3961 325.723 67.9854 325.294 67.6867 324.743C67.3881 324.183 67.2387 323.535 67.2387 322.797C67.2387 322.041 67.3881 321.388 67.6867 320.837C67.9947 320.277 68.4101 319.848 68.9327 319.549C69.4647 319.241 70.0574 319.087 70.7107 319.087C71.3827 319.087 71.9754 319.241 72.4887 319.549C73.0114 319.848 73.4221 320.277 73.7207 320.837C74.0287 321.388 74.1827 322.037 74.1827 322.783C74.1827 323.53 74.0287 324.183 73.7207 324.743C73.4127 325.294 72.9974 325.723 72.4747 326.031C71.9521 326.33 71.3547 326.479 70.6827 326.479ZM70.6967 325.471C71.0981 325.471 71.4714 325.373 71.8167 325.177C72.1621 324.972 72.4421 324.669 72.6567 324.267C72.8714 323.866 72.9787 323.371 72.9787 322.783C72.9787 322.186 72.8714 321.691 72.6567 321.299C72.4514 320.898 72.1761 320.599 71.8307 320.403C71.4947 320.198 71.1214 320.095 70.7107 320.095C70.3187 320.095 69.9454 320.198 69.5907 320.403C69.2454 320.599 68.9654 320.898 68.7507 321.299C68.5454 321.691 68.4427 322.186 68.4427 322.783C68.4427 323.371 68.5454 323.866 68.7507 324.267C68.9654 324.669 69.2407 324.972 69.5767 325.177C69.9221 325.373 70.2954 325.471 70.6967 325.471ZM79.0096 326.479C78.3469 326.479 77.7496 326.325 77.2176 326.017C76.6949 325.709 76.2842 325.28 75.9856 324.729C75.6869 324.169 75.5376 323.525 75.5376 322.797C75.5376 322.051 75.6869 321.402 75.9856 320.851C76.2842 320.301 76.6949 319.871 77.2176 319.563C77.7496 319.246 78.3469 319.087 79.0096 319.087C79.8496 319.087 80.5496 319.307 81.1096 319.745C81.6696 320.175 82.0242 320.753 82.1736 321.481H80.9696C80.8762 321.043 80.6476 320.702 80.2836 320.459C79.9196 320.217 79.4902 320.095 78.9956 320.095C78.5942 320.095 78.2209 320.198 77.8756 320.403C77.5302 320.599 77.2549 320.898 77.0496 321.299C76.8442 321.701 76.7416 322.195 76.7416 322.783C76.7416 323.222 76.8022 323.614 76.9236 323.959C77.0449 324.295 77.2082 324.575 77.4136 324.799C77.6189 325.023 77.8569 325.196 78.1276 325.317C78.4076 325.429 78.6969 325.485 78.9956 325.485C79.3316 325.485 79.6349 325.434 79.9056 325.331C80.1762 325.219 80.4049 325.056 80.5916 324.841C80.7782 324.627 80.9042 324.375 80.9696 324.085H82.1736C82.0242 324.795 81.6649 325.373 81.0956 325.821C80.5356 326.26 79.8402 326.479 79.0096 326.479ZM88.1833 326.311L84.8233 322.447L87.8893 319.255H89.3313L85.8173 322.867L85.8313 322.027L89.6813 326.311H88.1833ZM83.8433 326.311V316.231H85.0193V326.311H83.8433ZM98.3127 326.479C97.9114 326.479 97.5474 326.423 97.2207 326.311C96.9034 326.19 96.6234 326.031 96.3807 325.835C96.1381 325.639 95.9374 325.411 95.7787 325.149L95.6807 326.311H94.6167V316.231H95.7927V320.417C96.0167 320.053 96.3387 319.741 96.7587 319.479C97.1787 319.218 97.6967 319.087 98.3127 319.087C98.9941 319.087 99.5914 319.251 100.105 319.577C100.618 319.895 101.015 320.333 101.295 320.893C101.584 321.444 101.729 322.074 101.729 322.783C101.729 323.493 101.584 324.127 101.295 324.687C101.015 325.247 100.618 325.686 100.105 326.003C99.5914 326.321 98.9941 326.479 98.3127 326.479ZM98.1727 325.457C98.6301 325.457 99.0361 325.345 99.3907 325.121C99.7454 324.897 100.021 324.589 100.217 324.197C100.422 323.796 100.525 323.325 100.525 322.783C100.525 322.251 100.422 321.785 100.217 321.383C100.021 320.982 99.7454 320.669 99.3907 320.445C99.0361 320.221 98.6301 320.109 98.1727 320.109C97.7061 320.109 97.2954 320.221 96.9407 320.445C96.5861 320.669 96.3107 320.982 96.1147 321.383C95.9187 321.785 95.8207 322.251 95.8207 322.783C95.8207 323.325 95.9187 323.796 96.1147 324.197C96.3107 324.589 96.5861 324.897 96.9407 325.121C97.2954 325.345 97.7061 325.457 98.1727 325.457ZM103.59 329.391L105.312 325.527H104.906L102.134 319.255H103.408L105.704 324.645L108.112 319.255H109.33L104.822 329.391H103.59ZM117.496 326.479C116.833 326.479 116.236 326.325 115.704 326.017C115.181 325.709 114.771 325.28 114.472 324.729C114.173 324.169 114.024 323.525 114.024 322.797C114.024 322.051 114.173 321.402 114.472 320.851C114.771 320.301 115.181 319.871 115.704 319.563C116.236 319.246 116.833 319.087 117.496 319.087C118.336 319.087 119.036 319.307 119.596 319.745C120.156 320.175 120.511 320.753 120.66 321.481H119.456C119.363 321.043 119.134 320.702 118.77 320.459C118.406 320.217 117.977 320.095 117.482 320.095C117.081 320.095 116.707 320.198 116.362 320.403C116.017 320.599 115.741 320.898 115.536 321.299C115.331 321.701 115.228 322.195 115.228 322.783C115.228 323.222 115.289 323.614 115.41 323.959C115.531 324.295 115.695 324.575 115.9 324.799C116.105 325.023 116.343 325.196 116.614 325.317C116.894 325.429 117.183 325.485 117.482 325.485C117.818 325.485 118.121 325.434 118.392 325.331C118.663 325.219 118.891 325.056 119.078 324.841C119.265 324.627 119.391 324.375 119.456 324.085H120.66C120.511 324.795 120.151 325.373 119.582 325.821C119.022 326.26 118.327 326.479 117.496 326.479ZM124.626 326.479C124.056 326.479 123.58 326.381 123.198 326.185C122.815 325.98 122.53 325.714 122.344 325.387C122.157 325.051 122.064 324.687 122.064 324.295C122.064 323.819 122.185 323.418 122.428 323.091C122.68 322.755 123.03 322.503 123.478 322.335C123.935 322.158 124.472 322.069 125.088 322.069H126.95C126.95 321.631 126.88 321.267 126.74 320.977C126.609 320.679 126.413 320.455 126.152 320.305C125.9 320.156 125.582 320.081 125.2 320.081C124.752 320.081 124.364 320.193 124.038 320.417C123.711 320.641 123.51 320.973 123.436 321.411H122.232C122.288 320.907 122.456 320.487 122.736 320.151C123.025 319.806 123.389 319.545 123.828 319.367C124.266 319.181 124.724 319.087 125.2 319.087C125.853 319.087 126.394 319.209 126.824 319.451C127.262 319.685 127.589 320.016 127.804 320.445C128.018 320.865 128.126 321.365 128.126 321.943V326.311H127.076L127.006 325.065C126.912 325.261 126.791 325.448 126.642 325.625C126.502 325.793 126.334 325.943 126.138 326.073C125.942 326.195 125.718 326.293 125.466 326.367C125.223 326.442 124.943 326.479 124.626 326.479ZM124.808 325.485C125.134 325.485 125.428 325.42 125.69 325.289C125.96 325.149 126.189 324.963 126.376 324.729C126.562 324.487 126.702 324.221 126.796 323.931C126.898 323.642 126.95 323.339 126.95 323.021V322.979H125.186C124.728 322.979 124.36 323.035 124.08 323.147C123.8 323.25 123.599 323.399 123.478 323.595C123.356 323.782 123.296 323.997 123.296 324.239C123.296 324.491 123.352 324.711 123.464 324.897C123.585 325.084 123.758 325.229 123.982 325.331C124.215 325.434 124.49 325.485 124.808 325.485ZM132.525 326.311C132.105 326.311 131.741 326.246 131.433 326.115C131.125 325.985 130.887 325.765 130.719 325.457C130.561 325.14 130.481 324.715 130.481 324.183V320.249H129.249V319.255H130.481L130.635 317.547H131.657V319.255H133.701V320.249H131.657V324.183C131.657 324.622 131.746 324.921 131.923 325.079C132.101 325.229 132.413 325.303 132.861 325.303H133.617V326.311H132.525ZM138.138 326.479C137.476 326.479 136.888 326.325 136.374 326.017C135.87 325.709 135.474 325.28 135.184 324.729C134.895 324.169 134.75 323.521 134.75 322.783C134.75 322.037 134.89 321.388 135.17 320.837C135.46 320.287 135.861 319.857 136.374 319.549C136.897 319.241 137.494 319.087 138.166 319.087C138.857 319.087 139.44 319.241 139.916 319.549C140.402 319.857 140.77 320.263 141.022 320.767C141.284 321.262 141.414 321.808 141.414 322.405C141.414 322.499 141.414 322.597 141.414 322.699C141.414 322.802 141.41 322.919 141.4 323.049H135.632V322.139H140.266C140.238 321.495 140.024 320.991 139.622 320.627C139.23 320.263 138.736 320.081 138.138 320.081C137.737 320.081 137.364 320.175 137.018 320.361C136.682 320.539 136.412 320.805 136.206 321.159C136.001 321.505 135.898 321.939 135.898 322.461V322.853C135.898 323.432 136.001 323.917 136.206 324.309C136.421 324.701 136.696 324.995 137.032 325.191C137.378 325.387 137.746 325.485 138.138 325.485C138.633 325.485 139.039 325.378 139.356 325.163C139.683 324.939 139.916 324.641 140.056 324.267H141.218C141.106 324.687 140.91 325.065 140.63 325.401C140.35 325.737 140 326.003 139.58 326.199C139.17 326.386 138.689 326.479 138.138 326.479ZM145.746 329.559C145.112 329.559 144.547 329.475 144.052 329.307C143.567 329.149 143.189 328.901 142.918 328.565C142.648 328.229 142.512 327.814 142.512 327.319C142.512 327.105 142.554 326.876 142.638 326.633C142.732 326.391 142.886 326.153 143.1 325.919C143.324 325.686 143.637 325.476 144.038 325.289L144.85 325.765C144.356 325.971 144.034 326.204 143.884 326.465C143.735 326.736 143.66 326.983 143.66 327.207C143.66 327.515 143.749 327.772 143.926 327.977C144.104 328.183 144.351 328.337 144.668 328.439C144.986 328.542 145.345 328.593 145.746 328.593C146.148 328.593 146.493 328.537 146.782 328.425C147.072 328.313 147.296 328.155 147.454 327.949C147.613 327.744 147.692 327.501 147.692 327.221C147.692 326.895 147.571 326.619 147.328 326.395C147.086 326.181 146.624 326.055 145.942 326.017C145.392 325.98 144.93 325.929 144.556 325.863C144.183 325.798 143.875 325.723 143.632 325.639C143.39 325.546 143.184 325.443 143.016 325.331C142.858 325.219 142.713 325.103 142.582 324.981V324.659L143.94 323.315L144.962 323.679L143.562 324.939L143.744 324.449C143.847 324.524 143.945 324.594 144.038 324.659C144.132 324.725 144.258 324.781 144.416 324.827C144.575 324.874 144.794 324.916 145.074 324.953C145.364 324.991 145.742 325.028 146.208 325.065C146.852 325.112 147.366 325.224 147.748 325.401C148.14 325.579 148.42 325.817 148.588 326.115C148.766 326.414 148.854 326.769 148.854 327.179C148.854 327.581 148.742 327.959 148.518 328.313C148.304 328.677 147.968 328.976 147.51 329.209C147.053 329.443 146.465 329.559 145.746 329.559ZM145.732 324.099C145.144 324.099 144.64 323.987 144.22 323.763C143.81 323.539 143.497 323.241 143.282 322.867C143.068 322.485 142.96 322.06 142.96 321.593C142.96 321.127 143.068 320.707 143.282 320.333C143.506 319.96 143.824 319.661 144.234 319.437C144.645 319.204 145.144 319.087 145.732 319.087C146.32 319.087 146.82 319.204 147.23 319.437C147.641 319.661 147.954 319.96 148.168 320.333C148.383 320.707 148.49 321.127 148.49 321.593C148.49 322.06 148.383 322.485 148.168 322.867C147.954 323.241 147.641 323.539 147.23 323.763C146.82 323.987 146.32 324.099 145.732 324.099ZM145.732 323.133C146.236 323.133 146.633 323.003 146.922 322.741C147.212 322.48 147.356 322.097 147.356 321.593C147.356 321.099 147.212 320.721 146.922 320.459C146.633 320.198 146.236 320.067 145.732 320.067C145.238 320.067 144.836 320.198 144.528 320.459C144.23 320.721 144.08 321.099 144.08 321.593C144.08 322.097 144.23 322.48 144.528 322.741C144.827 323.003 145.228 323.133 145.732 323.133ZM146.88 320.249L146.53 319.255H149.414V320.137L146.88 320.249ZM153.644 326.479C152.99 326.479 152.402 326.33 151.88 326.031C151.357 325.723 150.946 325.294 150.648 324.743C150.349 324.183 150.2 323.535 150.2 322.797C150.2 322.041 150.349 321.388 150.648 320.837C150.956 320.277 151.371 319.848 151.894 319.549C152.426 319.241 153.018 319.087 153.672 319.087C154.344 319.087 154.936 319.241 155.45 319.549C155.972 319.848 156.383 320.277 156.682 320.837C156.99 321.388 157.144 322.037 157.144 322.783C157.144 323.53 156.99 324.183 156.682 324.743C156.374 325.294 155.958 325.723 155.436 326.031C154.913 326.33 154.316 326.479 153.644 326.479ZM153.658 325.471C154.059 325.471 154.432 325.373 154.778 325.177C155.123 324.972 155.403 324.669 155.618 324.267C155.832 323.866 155.94 323.371 155.94 322.783C155.94 322.186 155.832 321.691 155.618 321.299C155.412 320.898 155.137 320.599 154.792 320.403C154.456 320.198 154.082 320.095 153.672 320.095C153.28 320.095 152.906 320.198 152.552 320.403C152.206 320.599 151.926 320.898 151.712 321.299C151.506 321.691 151.404 322.186 151.404 322.783C151.404 323.371 151.506 323.866 151.712 324.267C151.926 324.669 152.202 324.972 152.538 325.177C152.883 325.373 153.256 325.471 153.658 325.471ZM158.793 326.311V319.255H159.857L159.941 320.599C160.099 320.282 160.3 320.011 160.543 319.787C160.795 319.563 161.093 319.391 161.439 319.269C161.793 319.148 162.195 319.087 162.643 319.087V320.319H162.209C161.91 320.319 161.625 320.361 161.355 320.445C161.084 320.52 160.841 320.646 160.627 320.823C160.421 321.001 160.258 321.243 160.137 321.551C160.025 321.85 159.969 322.223 159.969 322.671V326.311H158.793ZM164.744 329.391L166.466 325.527H166.06L163.288 319.255H164.562L166.858 324.645L169.266 319.255H170.484L165.976 329.391H164.744Z" fill="black"/>
<path d="M55.994 364.311V354.511H59.508C60.2827 354.511 60.922 354.647 61.426 354.917C61.9393 355.179 62.3173 355.533 62.56 355.981C62.812 356.42 62.938 356.919 62.938 357.479C62.938 358.002 62.8167 358.487 62.574 358.935C62.3313 359.383 61.9533 359.743 61.44 360.013C60.9267 360.284 60.2687 360.419 59.466 360.419H57.674V364.311H55.994ZM61.104 364.311L59.046 359.985H60.866L63.022 364.311H61.104ZM57.674 359.173H59.396C60.0213 359.173 60.4787 359.024 60.768 358.725C61.0667 358.417 61.216 358.016 61.216 357.521C61.216 357.036 61.0713 356.649 60.782 356.359C60.4927 356.061 60.0307 355.911 59.396 355.911H57.674V359.173ZM67.4998 364.479C66.7998 364.479 66.1838 364.33 65.6518 364.031C65.1198 363.723 64.7045 363.294 64.4058 362.743C64.1071 362.193 63.9578 361.558 63.9578 360.839C63.9578 360.093 64.1025 359.439 64.3918 358.879C64.6905 358.319 65.1058 357.881 65.6378 357.563C66.1791 357.246 66.8045 357.087 67.5138 357.087C68.2045 357.087 68.8065 357.241 69.3198 357.549C69.8331 357.857 70.2298 358.273 70.5098 358.795C70.7898 359.309 70.9298 359.887 70.9298 360.531C70.9298 360.625 70.9298 360.727 70.9298 360.839C70.9298 360.951 70.9205 361.068 70.9018 361.189H65.1618V360.111H69.2358C69.2171 359.598 69.0445 359.197 68.7178 358.907C68.3911 358.609 67.9851 358.459 67.4998 358.459C67.1545 358.459 66.8371 358.539 66.5478 358.697C66.2585 358.856 66.0298 359.094 65.8618 359.411C65.6938 359.719 65.6098 360.111 65.6098 360.587V360.993C65.6098 361.432 65.6891 361.81 65.8478 362.127C66.0158 362.445 66.2398 362.687 66.5198 362.855C66.8091 363.014 67.1311 363.093 67.4858 363.093C67.8778 363.093 68.1998 363.009 68.4518 362.841C68.7131 362.673 68.9045 362.449 69.0258 362.169H70.7338C70.6031 362.608 70.3885 363.005 70.0898 363.359C69.7911 363.705 69.4225 363.98 68.9838 364.185C68.5451 364.381 68.0505 364.479 67.4998 364.479ZM74.833 364.479C74.2543 364.479 73.7736 364.381 73.391 364.185C73.0083 363.989 72.7236 363.728 72.537 363.401C72.3503 363.075 72.257 362.72 72.257 362.337C72.257 361.889 72.369 361.502 72.593 361.175C72.8263 360.849 73.167 360.597 73.615 360.419C74.063 360.233 74.6136 360.139 75.267 360.139H77.045C77.045 359.766 76.9936 359.458 76.891 359.215C76.7883 358.963 76.6296 358.777 76.415 358.655C76.2003 358.534 75.925 358.473 75.589 358.473C75.2063 358.473 74.8796 358.562 74.609 358.739C74.3383 358.907 74.1703 359.169 74.105 359.523H72.453C72.509 359.019 72.677 358.59 72.957 358.235C73.237 357.871 73.6056 357.591 74.063 357.395C74.5296 357.19 75.0383 357.087 75.589 357.087C76.2516 357.087 76.8163 357.204 77.283 357.437C77.7496 357.661 78.1043 357.988 78.347 358.417C78.599 358.837 78.725 359.346 78.725 359.943V364.311H77.297L77.129 363.177C77.0356 363.364 76.9143 363.537 76.765 363.695C76.625 363.854 76.4616 363.994 76.275 364.115C76.0883 364.227 75.8736 364.316 75.631 364.381C75.3976 364.447 75.1316 364.479 74.833 364.479ZM75.211 363.149C75.4816 363.149 75.7196 363.103 75.925 363.009C76.1396 362.907 76.3216 362.767 76.471 362.589C76.6296 362.403 76.751 362.197 76.835 361.973C76.919 361.749 76.975 361.511 77.003 361.259V361.231H75.449C75.1223 361.231 74.8516 361.273 74.637 361.357C74.4223 361.432 74.2683 361.544 74.175 361.693C74.0816 361.843 74.035 362.015 74.035 362.211C74.035 362.407 74.0816 362.575 74.175 362.715C74.2683 362.855 74.4036 362.963 74.581 363.037C74.7583 363.112 74.9683 363.149 75.211 363.149ZM83.334 364.479C82.7087 364.479 82.1627 364.381 81.696 364.185C81.2387 363.98 80.8747 363.7 80.604 363.345C80.3427 362.981 80.1887 362.566 80.142 362.099H81.822C81.8687 362.295 81.9527 362.477 82.074 362.645C82.1954 362.804 82.3587 362.93 82.564 363.023C82.7787 363.117 83.0307 363.163 83.32 363.163C83.6 363.163 83.8287 363.126 84.006 363.051C84.1834 362.967 84.314 362.86 84.398 362.729C84.482 362.599 84.524 362.459 84.524 362.309C84.524 362.085 84.4634 361.913 84.342 361.791C84.2207 361.67 84.0434 361.577 83.81 361.511C83.586 361.437 83.3154 361.367 82.998 361.301C82.662 361.236 82.3354 361.157 82.018 361.063C81.71 360.961 81.43 360.835 81.178 360.685C80.9354 360.536 80.7394 360.345 80.59 360.111C80.45 359.878 80.38 359.593 80.38 359.257C80.38 358.847 80.4874 358.478 80.702 358.151C80.926 357.825 81.2434 357.568 81.654 357.381C82.074 357.185 82.5734 357.087 83.152 357.087C83.9734 357.087 84.6267 357.279 85.112 357.661C85.6067 358.035 85.896 358.562 85.98 359.243H84.384C84.3374 358.982 84.2067 358.781 83.992 358.641C83.7774 358.492 83.4927 358.417 83.138 358.417C82.774 358.417 82.494 358.487 82.298 358.627C82.1114 358.758 82.018 358.935 82.018 359.159C82.018 359.299 82.074 359.43 82.186 359.551C82.3074 359.663 82.48 359.761 82.704 359.845C82.928 359.92 83.2034 359.995 83.53 360.069C84.0527 360.172 84.5147 360.293 84.916 360.433C85.3174 360.573 85.6347 360.779 85.868 361.049C86.1014 361.32 86.218 361.703 86.218 362.197C86.2274 362.645 86.1107 363.042 85.868 363.387C85.6347 363.733 85.3034 364.003 84.874 364.199C84.4447 364.386 83.9314 364.479 83.334 364.479ZM91.1382 364.479C90.4662 364.479 89.8595 364.325 89.3182 364.017C88.7862 363.7 88.3662 363.266 88.0582 362.715C87.7595 362.155 87.6102 361.516 87.6102 360.797C87.6102 360.06 87.7642 359.416 88.0722 358.865C88.3802 358.305 88.8002 357.871 89.3322 357.563C89.8735 357.246 90.4802 357.087 91.1522 357.087C91.8242 357.087 92.4262 357.246 92.9582 357.563C93.4995 357.871 93.9195 358.301 94.2182 358.851C94.5262 359.402 94.6802 360.046 94.6802 360.783C94.6802 361.521 94.5262 362.165 94.2182 362.715C93.9102 363.266 93.4855 363.7 92.9442 364.017C92.4122 364.325 91.8102 364.479 91.1382 364.479ZM91.1382 363.037C91.4742 363.037 91.7775 362.953 92.0482 362.785C92.3282 362.617 92.5522 362.365 92.7202 362.029C92.8882 361.693 92.9722 361.278 92.9722 360.783C92.9722 360.289 92.8882 359.878 92.7202 359.551C92.5615 359.215 92.3422 358.963 92.0622 358.795C91.7915 358.627 91.4882 358.543 91.1522 358.543C90.8255 358.543 90.5222 358.627 90.2422 358.795C89.9622 358.963 89.7382 359.215 89.5702 359.551C89.4022 359.878 89.3182 360.289 89.3182 360.783C89.3182 361.278 89.4022 361.693 89.5702 362.029C89.7382 362.365 89.9575 362.617 90.2282 362.785C90.5082 362.953 90.8115 363.037 91.1382 363.037ZM96.3247 364.311V357.255H97.8087L97.9347 358.431C98.1494 358.021 98.4574 357.694 98.8587 357.451C99.2601 357.209 99.7361 357.087 100.287 357.087C100.856 357.087 101.341 357.209 101.743 357.451C102.144 357.685 102.452 358.03 102.667 358.487C102.891 358.945 103.003 359.514 103.003 360.195V364.311H101.323V360.349C101.323 359.761 101.192 359.309 100.931 358.991C100.669 358.674 100.282 358.515 99.7687 358.515C99.4327 358.515 99.1294 358.595 98.8587 358.753C98.5974 358.912 98.3874 359.145 98.2287 359.453C98.0794 359.752 98.0047 360.116 98.0047 360.545V364.311H96.3247Z" fill="black"/>
<path d="M56.05 386.311V376.511H59.494C60.1847 376.511 60.754 376.623 61.202 376.847C61.6593 377.062 62 377.361 62.224 377.743C62.448 378.117 62.56 378.537 62.56 379.003C62.56 379.507 62.448 379.927 62.224 380.263C62.0093 380.599 61.7247 380.856 61.37 381.033C61.0247 381.211 60.656 381.318 60.264 381.355L60.46 381.215C60.88 381.225 61.2673 381.337 61.622 381.551C61.9767 381.766 62.2567 382.055 62.462 382.419C62.6767 382.783 62.784 383.189 62.784 383.637C62.784 384.132 62.6627 384.585 62.42 384.995C62.1773 385.397 61.818 385.719 61.342 385.961C60.8753 386.195 60.2967 386.311 59.606 386.311H56.05ZM57.226 385.331H59.48C60.1427 385.331 60.656 385.177 61.02 384.869C61.3933 384.552 61.58 384.113 61.58 383.553C61.58 383.003 61.3887 382.564 61.006 382.237C60.6327 381.901 60.1147 381.733 59.452 381.733H57.226V385.331ZM57.226 380.795H59.41C60.0447 380.795 60.5253 380.646 60.852 380.347C61.188 380.049 61.356 379.643 61.356 379.129C61.356 378.635 61.188 378.238 60.852 377.939C60.5253 377.641 60.0307 377.491 59.368 377.491H57.226V380.795ZM64.4155 386.311V376.231H65.5915V386.311H64.4155ZM70.6827 386.479C70.0294 386.479 69.4414 386.33 68.9187 386.031C68.3961 385.723 67.9854 385.294 67.6867 384.743C67.3881 384.183 67.2387 383.535 67.2387 382.797C67.2387 382.041 67.3881 381.388 67.6867 380.837C67.9947 380.277 68.4101 379.848 68.9327 379.549C69.4647 379.241 70.0574 379.087 70.7107 379.087C71.3827 379.087 71.9754 379.241 72.4887 379.549C73.0114 379.848 73.4221 380.277 73.7207 380.837C74.0287 381.388 74.1827 382.037 74.1827 382.783C74.1827 383.53 74.0287 384.183 73.7207 384.743C73.4127 385.294 72.9974 385.723 72.4747 386.031C71.9521 386.33 71.3547 386.479 70.6827 386.479ZM70.6967 385.471C71.0981 385.471 71.4714 385.373 71.8167 385.177C72.1621 384.972 72.4421 384.669 72.6567 384.267C72.8714 383.866 72.9787 383.371 72.9787 382.783C72.9787 382.186 72.8714 381.691 72.6567 381.299C72.4514 380.898 72.1761 380.599 71.8307 380.403C71.4947 380.198 71.1214 380.095 70.7107 380.095C70.3187 380.095 69.9454 380.198 69.5907 380.403C69.2454 380.599 68.9654 380.898 68.7507 381.299C68.5454 381.691 68.4427 382.186 68.4427 382.783C68.4427 383.371 68.5454 383.866 68.7507 384.267C68.9654 384.669 69.2407 384.972 69.5767 385.177C69.9221 385.373 70.2954 385.471 70.6967 385.471ZM79.0096 386.479C78.3469 386.479 77.7496 386.325 77.2176 386.017C76.6949 385.709 76.2842 385.28 75.9856 384.729C75.6869 384.169 75.5376 383.525 75.5376 382.797C75.5376 382.051 75.6869 381.402 75.9856 380.851C76.2842 380.301 76.6949 379.871 77.2176 379.563C77.7496 379.246 78.3469 379.087 79.0096 379.087C79.8496 379.087 80.5496 379.307 81.1096 379.745C81.6696 380.175 82.0242 380.753 82.1736 381.481H80.9696C80.8762 381.043 80.6476 380.702 80.2836 380.459C79.9196 380.217 79.4902 380.095 78.9956 380.095C78.5942 380.095 78.2209 380.198 77.8756 380.403C77.5302 380.599 77.2549 380.898 77.0496 381.299C76.8442 381.701 76.7416 382.195 76.7416 382.783C76.7416 383.222 76.8022 383.614 76.9236 383.959C77.0449 384.295 77.2082 384.575 77.4136 384.799C77.6189 385.023 77.8569 385.196 78.1276 385.317C78.4076 385.429 78.6969 385.485 78.9956 385.485C79.3316 385.485 79.6349 385.434 79.9056 385.331C80.1762 385.219 80.4049 385.056 80.5916 384.841C80.7782 384.627 80.9042 384.375 80.9696 384.085H82.1736C82.0242 384.795 81.6649 385.373 81.0956 385.821C80.5356 386.26 79.8402 386.479 79.0096 386.479ZM88.1833 386.311L84.8233 382.447L87.8893 379.255H89.3313L85.8173 382.867L85.8313 382.027L89.6813 386.311H88.1833ZM83.8433 386.311V376.231H85.0193V386.311H83.8433ZM93.4861 386.479C92.8234 386.479 92.2354 386.325 91.7221 386.017C91.2181 385.709 90.8214 385.28 90.5321 384.729C90.2428 384.169 90.0981 383.521 90.0981 382.783C90.0981 382.037 90.2381 381.388 90.5181 380.837C90.8074 380.287 91.2088 379.857 91.7221 379.549C92.2448 379.241 92.8421 379.087 93.5141 379.087C94.2048 379.087 94.7881 379.241 95.2641 379.549C95.7494 379.857 96.1181 380.263 96.3701 380.767C96.6314 381.262 96.7621 381.808 96.7621 382.405C96.7621 382.499 96.7621 382.597 96.7621 382.699C96.7621 382.802 96.7574 382.919 96.7481 383.049H90.9801V382.139H95.6141C95.5861 381.495 95.3714 380.991 94.9701 380.627C94.5781 380.263 94.0834 380.081 93.4861 380.081C93.0848 380.081 92.7114 380.175 92.3661 380.361C92.0301 380.539 91.7594 380.805 91.5541 381.159C91.3488 381.505 91.2461 381.939 91.2461 382.461V382.853C91.2461 383.432 91.3488 383.917 91.5541 384.309C91.7688 384.701 92.0441 384.995 92.3801 385.191C92.7254 385.387 93.0941 385.485 93.4861 385.485C93.9808 385.485 94.3868 385.378 94.7041 385.163C95.0308 384.939 95.2641 384.641 95.4041 384.267H96.5661C96.4541 384.687 96.2581 385.065 95.9781 385.401C95.6981 385.737 95.3481 386.003 94.9281 386.199C94.5174 386.386 94.0368 386.479 93.4861 386.479ZM101.457 386.479C100.776 386.479 100.178 386.321 99.6651 386.003C99.1518 385.677 98.7551 385.233 98.4751 384.673C98.1951 384.113 98.0551 383.479 98.0551 382.769C98.0551 382.06 98.1951 381.43 98.4751 380.879C98.7551 380.319 99.1518 379.881 99.6651 379.563C100.188 379.246 100.79 379.087 101.471 379.087C102.05 379.087 102.554 379.204 102.983 379.437C103.422 379.671 103.758 379.997 103.991 380.417V376.231H105.167V386.311H104.103L104.005 385.149C103.856 385.383 103.664 385.602 103.431 385.807C103.198 386.003 102.918 386.167 102.591 386.297C102.264 386.419 101.886 386.479 101.457 386.479ZM101.597 385.457C102.064 385.457 102.474 385.345 102.829 385.121C103.184 384.897 103.459 384.589 103.655 384.197C103.851 383.796 103.949 383.325 103.949 382.783C103.949 382.251 103.851 381.785 103.655 381.383C103.459 380.982 103.184 380.669 102.829 380.445C102.474 380.221 102.064 380.109 101.597 380.109C101.14 380.109 100.734 380.221 100.379 380.445C100.024 380.669 99.7491 380.982 99.5531 381.383C99.3571 381.785 99.2591 382.251 99.2591 382.783C99.2591 383.325 99.3571 383.796 99.5531 384.197C99.7491 384.589 100.024 384.897 100.379 385.121C100.734 385.345 101.14 385.457 101.597 385.457ZM113.953 386.479C113.272 386.479 112.675 386.321 112.161 386.003C111.648 385.677 111.251 385.233 110.971 384.673C110.691 384.113 110.551 383.479 110.551 382.769C110.551 382.06 110.691 381.43 110.971 380.879C111.251 380.319 111.648 379.881 112.161 379.563C112.684 379.246 113.286 379.087 113.967 379.087C114.546 379.087 115.05 379.204 115.479 379.437C115.918 379.671 116.254 379.997 116.487 380.417V376.231H117.663V386.311H116.599L116.501 385.149C116.352 385.383 116.161 385.602 115.927 385.807C115.694 386.003 115.414 386.167 115.087 386.297C114.761 386.419 114.383 386.479 113.953 386.479ZM114.093 385.457C114.56 385.457 114.971 385.345 115.325 385.121C115.68 384.897 115.955 384.589 116.151 384.197C116.347 383.796 116.445 383.325 116.445 382.783C116.445 382.251 116.347 381.785 116.151 381.383C115.955 380.982 115.68 380.669 115.325 380.445C114.971 380.221 114.56 380.109 114.093 380.109C113.636 380.109 113.23 380.221 112.875 380.445C112.521 380.669 112.245 380.982 112.049 381.383C111.853 381.785 111.755 382.251 111.755 382.783C111.755 383.325 111.853 383.796 112.049 384.197C112.245 384.589 112.521 384.897 112.875 385.121C113.23 385.345 113.636 385.457 114.093 385.457ZM122.185 386.479C121.643 386.479 121.167 386.372 120.757 386.157C120.355 385.943 120.043 385.611 119.819 385.163C119.604 384.715 119.497 384.155 119.497 383.483V379.255H120.673V383.357C120.673 384.057 120.827 384.585 121.135 384.939C121.443 385.294 121.877 385.471 122.437 385.471C122.829 385.471 123.183 385.378 123.501 385.191C123.818 384.995 124.065 384.72 124.243 384.365C124.429 384.001 124.523 383.558 124.523 383.035V379.255H125.699V386.311H124.635L124.565 385.079C124.35 385.518 124.033 385.863 123.613 386.115C123.193 386.358 122.717 386.479 122.185 386.479ZM130.742 386.479C130.079 386.479 129.491 386.325 128.978 386.017C128.474 385.709 128.077 385.28 127.788 384.729C127.499 384.169 127.354 383.521 127.354 382.783C127.354 382.037 127.494 381.388 127.774 380.837C128.063 380.287 128.465 379.857 128.978 379.549C129.501 379.241 130.098 379.087 130.77 379.087C131.461 379.087 132.044 379.241 132.52 379.549C133.005 379.857 133.374 380.263 133.626 380.767C133.887 381.262 134.018 381.808 134.018 382.405C134.018 382.499 134.018 382.597 134.018 382.699C134.018 382.802 134.013 382.919 134.004 383.049H128.236V382.139H132.87C132.842 381.495 132.627 380.991 132.226 380.627C131.834 380.263 131.339 380.081 130.742 380.081C130.341 380.081 129.967 380.175 129.622 380.361C129.286 380.539 129.015 380.805 128.81 381.159C128.605 381.505 128.502 381.939 128.502 382.461V382.853C128.502 383.432 128.605 383.917 128.81 384.309C129.025 384.701 129.3 384.995 129.636 385.191C129.981 385.387 130.35 385.485 130.742 385.485C131.237 385.485 131.643 385.378 131.96 385.163C132.287 384.939 132.52 384.641 132.66 384.267H133.822C133.71 384.687 133.514 385.065 133.234 385.401C132.954 385.737 132.604 386.003 132.184 386.199C131.773 386.386 131.293 386.479 130.742 386.479ZM142.096 386.311C141.676 386.311 141.312 386.246 141.004 386.115C140.696 385.985 140.458 385.765 140.29 385.457C140.131 385.14 140.052 384.715 140.052 384.183V380.249H138.82V379.255H140.052L140.206 377.547H141.228V379.255H143.272V380.249H141.228V384.183C141.228 384.622 141.316 384.921 141.494 385.079C141.671 385.229 141.984 385.303 142.432 385.303H143.188V386.311H142.096ZM147.765 386.479C147.111 386.479 146.523 386.33 146.001 386.031C145.478 385.723 145.067 385.294 144.769 384.743C144.47 384.183 144.321 383.535 144.321 382.797C144.321 382.041 144.47 381.388 144.769 380.837C145.077 380.277 145.492 379.848 146.015 379.549C146.547 379.241 147.139 379.087 147.793 379.087C148.465 379.087 149.057 379.241 149.571 379.549C150.093 379.848 150.504 380.277 150.803 380.837C151.111 381.388 151.265 382.037 151.265 382.783C151.265 383.53 151.111 384.183 150.803 384.743C150.495 385.294 150.079 385.723 149.557 386.031C149.034 386.33 148.437 386.479 147.765 386.479ZM147.779 385.471C148.18 385.471 148.553 385.373 148.899 385.177C149.244 384.972 149.524 384.669 149.739 384.267C149.953 383.866 150.061 383.371 150.061 382.783C150.061 382.186 149.953 381.691 149.739 381.299C149.533 380.898 149.258 380.599 148.913 380.403C148.577 380.198 148.203 380.095 147.793 380.095C147.401 380.095 147.027 380.198 146.673 380.403C146.327 380.599 146.047 380.898 145.833 381.299C145.627 381.691 145.525 382.186 145.525 382.783C145.525 383.371 145.627 383.866 145.833 384.267C146.047 384.669 146.323 384.972 146.659 385.177C147.004 385.373 147.377 385.471 147.779 385.471ZM159.81 386.479C159.148 386.479 158.55 386.325 158.018 386.017C157.496 385.709 157.085 385.28 156.786 384.729C156.488 384.169 156.338 383.525 156.338 382.797C156.338 382.051 156.488 381.402 156.786 380.851C157.085 380.301 157.496 379.871 158.018 379.563C158.55 379.246 159.148 379.087 159.81 379.087C160.65 379.087 161.35 379.307 161.91 379.745C162.47 380.175 162.825 380.753 162.974 381.481H161.77C161.677 381.043 161.448 380.702 161.084 380.459C160.72 380.217 160.291 380.095 159.796 380.095C159.395 380.095 159.022 380.198 158.676 380.403C158.331 380.599 158.056 380.898 157.85 381.299C157.645 381.701 157.542 382.195 157.542 382.783C157.542 383.222 157.603 383.614 157.724 383.959C157.846 384.295 158.009 384.575 158.214 384.799C158.42 385.023 158.658 385.196 158.928 385.317C159.208 385.429 159.498 385.485 159.796 385.485C160.132 385.485 160.436 385.434 160.706 385.331C160.977 385.219 161.206 385.056 161.392 384.841C161.579 384.627 161.705 384.375 161.77 384.085H162.974C162.825 384.795 162.466 385.373 161.896 385.821C161.336 386.26 160.641 386.479 159.81 386.479ZM166.94 386.479C166.371 386.479 165.895 386.381 165.512 386.185C165.129 385.98 164.845 385.714 164.658 385.387C164.471 385.051 164.378 384.687 164.378 384.295C164.378 383.819 164.499 383.418 164.742 383.091C164.994 382.755 165.344 382.503 165.792 382.335C166.249 382.158 166.786 382.069 167.402 382.069H169.264C169.264 381.631 169.194 381.267 169.054 380.977C168.923 380.679 168.727 380.455 168.466 380.305C168.214 380.156 167.897 380.081 167.514 380.081C167.066 380.081 166.679 380.193 166.352 380.417C166.025 380.641 165.825 380.973 165.75 381.411H164.546C164.602 380.907 164.77 380.487 165.05 380.151C165.339 379.806 165.703 379.545 166.142 379.367C166.581 379.181 167.038 379.087 167.514 379.087C168.167 379.087 168.709 379.209 169.138 379.451C169.577 379.685 169.903 380.016 170.118 380.445C170.333 380.865 170.44 381.365 170.44 381.943V386.311H169.39L169.32 385.065C169.227 385.261 169.105 385.448 168.956 385.625C168.816 385.793 168.648 385.943 168.452 386.073C168.256 386.195 168.032 386.293 167.78 386.367C167.537 386.442 167.257 386.479 166.94 386.479ZM167.122 385.485C167.449 385.485 167.743 385.42 168.004 385.289C168.275 385.149 168.503 384.963 168.69 384.729C168.877 384.487 169.017 384.221 169.11 383.931C169.213 383.642 169.264 383.339 169.264 383.021V382.979H167.5C167.043 382.979 166.674 383.035 166.394 383.147C166.114 383.25 165.913 383.399 165.792 383.595C165.671 383.782 165.61 383.997 165.61 384.239C165.61 384.491 165.666 384.711 165.778 384.897C165.899 385.084 166.072 385.229 166.296 385.331C166.529 385.434 166.805 385.485 167.122 385.485ZM174.84 386.311C174.42 386.311 174.056 386.246 173.748 386.115C173.44 385.985 173.202 385.765 173.034 385.457C172.875 385.14 172.796 384.715 172.796 384.183V380.249H171.564V379.255H172.796L172.95 377.547H173.972V379.255H176.016V380.249H173.972V384.183C173.972 384.622 174.061 384.921 174.238 385.079C174.415 385.229 174.728 385.303 175.176 385.303H175.932V386.311H174.84ZM180.453 386.479C179.79 386.479 179.202 386.325 178.689 386.017C178.185 385.709 177.788 385.28 177.499 384.729C177.21 384.169 177.065 383.521 177.065 382.783C177.065 382.037 177.205 381.388 177.485 380.837C177.774 380.287 178.176 379.857 178.689 379.549C179.212 379.241 179.809 379.087 180.481 379.087C181.172 379.087 181.755 379.241 182.231 379.549C182.716 379.857 183.085 380.263 183.337 380.767C183.598 381.262 183.729 381.808 183.729 382.405C183.729 382.499 183.729 382.597 183.729 382.699C183.729 382.802 183.724 382.919 183.715 383.049H177.947V382.139H182.581C182.553 381.495 182.338 380.991 181.937 380.627C181.545 380.263 181.05 380.081 180.453 380.081C180.052 380.081 179.678 380.175 179.333 380.361C178.997 380.539 178.726 380.805 178.521 381.159C178.316 381.505 178.213 381.939 178.213 382.461V382.853C178.213 383.432 178.316 383.917 178.521 384.309C178.736 384.701 179.011 384.995 179.347 385.191C179.692 385.387 180.061 385.485 180.453 385.485C180.948 385.485 181.354 385.378 181.671 385.163C181.998 384.939 182.231 384.641 182.371 384.267H183.533C183.421 384.687 183.225 385.065 182.945 385.401C182.665 385.737 182.315 386.003 181.895 386.199C181.484 386.386 181.004 386.479 180.453 386.479ZM188.061 389.559C187.426 389.559 186.862 389.475 186.367 389.307C185.882 389.149 185.504 388.901 185.233 388.565C184.962 388.229 184.827 387.814 184.827 387.319C184.827 387.105 184.869 386.876 184.953 386.633C185.046 386.391 185.2 386.153 185.415 385.919C185.639 385.686 185.952 385.476 186.353 385.289L187.165 385.765C186.67 385.971 186.348 386.204 186.199 386.465C186.05 386.736 185.975 386.983 185.975 387.207C185.975 387.515 186.064 387.772 186.241 387.977C186.418 388.183 186.666 388.337 186.983 388.439C187.3 388.542 187.66 388.593 188.061 388.593C188.462 388.593 188.808 388.537 189.097 388.425C189.386 388.313 189.61 388.155 189.769 387.949C189.928 387.744 190.007 387.501 190.007 387.221C190.007 386.895 189.886 386.619 189.643 386.395C189.4 386.181 188.938 386.055 188.257 386.017C187.706 385.98 187.244 385.929 186.871 385.863C186.498 385.798 186.19 385.723 185.947 385.639C185.704 385.546 185.499 385.443 185.331 385.331C185.172 385.219 185.028 385.103 184.897 384.981V384.659L186.255 383.315L187.277 383.679L185.877 384.939L186.059 384.449C186.162 384.524 186.26 384.594 186.353 384.659C186.446 384.725 186.572 384.781 186.731 384.827C186.89 384.874 187.109 384.916 187.389 384.953C187.678 384.991 188.056 385.028 188.523 385.065C189.167 385.112 189.68 385.224 190.063 385.401C190.455 385.579 190.735 385.817 190.903 386.115C191.08 386.414 191.169 386.769 191.169 387.179C191.169 387.581 191.057 387.959 190.833 388.313C190.618 388.677 190.282 388.976 189.825 389.209C189.368 389.443 188.78 389.559 188.061 389.559ZM188.047 384.099C187.459 384.099 186.955 383.987 186.535 383.763C186.124 383.539 185.812 383.241 185.597 382.867C185.382 382.485 185.275 382.06 185.275 381.593C185.275 381.127 185.382 380.707 185.597 380.333C185.821 379.96 186.138 379.661 186.549 379.437C186.96 379.204 187.459 379.087 188.047 379.087C188.635 379.087 189.134 379.204 189.545 379.437C189.956 379.661 190.268 379.96 190.483 380.333C190.698 380.707 190.805 381.127 190.805 381.593C190.805 382.06 190.698 382.485 190.483 382.867C190.268 383.241 189.956 383.539 189.545 383.763C189.134 383.987 188.635 384.099 188.047 384.099ZM188.047 383.133C188.551 383.133 188.948 383.003 189.237 382.741C189.526 382.48 189.671 382.097 189.671 381.593C189.671 381.099 189.526 380.721 189.237 380.459C188.948 380.198 188.551 380.067 188.047 380.067C187.552 380.067 187.151 380.198 186.843 380.459C186.544 380.721 186.395 381.099 186.395 381.593C186.395 382.097 186.544 382.48 186.843 382.741C187.142 383.003 187.543 383.133 188.047 383.133ZM189.195 380.249L188.845 379.255H191.729V380.137L189.195 380.249ZM195.958 386.479C195.305 386.479 194.717 386.33 194.194 386.031C193.671 385.723 193.261 385.294 192.962 384.743C192.663 384.183 192.514 383.535 192.514 382.797C192.514 382.041 192.663 381.388 192.962 380.837C193.27 380.277 193.685 379.848 194.208 379.549C194.74 379.241 195.333 379.087 195.986 379.087C196.658 379.087 197.251 379.241 197.764 379.549C198.287 379.848 198.697 380.277 198.996 380.837C199.304 381.388 199.458 382.037 199.458 382.783C199.458 383.53 199.304 384.183 198.996 384.743C198.688 385.294 198.273 385.723 197.75 386.031C197.227 386.33 196.63 386.479 195.958 386.479ZM195.972 385.471C196.373 385.471 196.747 385.373 197.092 385.177C197.437 384.972 197.717 384.669 197.932 384.267C198.147 383.866 198.254 383.371 198.254 382.783C198.254 382.186 198.147 381.691 197.932 381.299C197.727 380.898 197.451 380.599 197.106 380.403C196.77 380.198 196.397 380.095 195.986 380.095C195.594 380.095 195.221 380.198 194.866 380.403C194.521 380.599 194.241 380.898 194.026 381.299C193.821 381.691 193.718 382.186 193.718 382.783C193.718 383.371 193.821 383.866 194.026 384.267C194.241 384.669 194.516 384.972 194.852 385.177C195.197 385.373 195.571 385.471 195.972 385.471ZM201.107 386.311V379.255H202.171L202.255 380.599C202.414 380.282 202.614 380.011 202.857 379.787C203.109 379.563 203.408 379.391 203.753 379.269C204.108 379.148 204.509 379.087 204.957 379.087V380.319H204.523C204.224 380.319 203.94 380.361 203.669 380.445C203.398 380.52 203.156 380.646 202.941 380.823C202.736 381.001 202.572 381.243 202.451 381.551C202.339 381.85 202.283 382.223 202.283 382.671V386.311H201.107ZM207.059 389.391L208.781 385.527H208.375L205.603 379.255H206.877L209.173 384.645L211.581 379.255H212.799L208.291 389.391H207.059ZM214.488 386.381C214.255 386.381 214.059 386.307 213.9 386.157C213.751 385.999 213.676 385.807 213.676 385.583C213.676 385.359 213.751 385.173 213.9 385.023C214.059 384.865 214.255 384.785 214.488 384.785C214.721 384.785 214.913 384.865 215.062 385.023C215.211 385.173 215.286 385.359 215.286 385.583C215.286 385.807 215.211 385.999 215.062 386.157C214.913 386.307 214.721 386.381 214.488 386.381ZM214.488 380.683C214.255 380.683 214.059 380.609 213.9 380.459C213.751 380.301 213.676 380.109 213.676 379.885C213.676 379.661 213.751 379.475 213.9 379.325C214.059 379.167 214.255 379.087 214.488 379.087C214.721 379.087 214.913 379.167 215.062 379.325C215.211 379.475 215.286 379.661 215.286 379.885C215.286 380.109 215.211 380.301 215.062 380.459C214.913 380.609 214.721 380.683 214.488 380.683ZM220.057 386.311L223.669 376.511H224.915L228.513 386.311H227.267L224.285 377.981L221.289 386.311H220.057ZM221.709 383.791L222.045 382.839H226.483L226.819 383.791H221.709ZM232.639 386.479C231.957 386.479 231.36 386.321 230.847 386.003C230.333 385.677 229.937 385.233 229.657 384.673C229.377 384.113 229.237 383.479 229.237 382.769C229.237 382.06 229.377 381.43 229.657 380.879C229.937 380.319 230.333 379.881 230.847 379.563C231.369 379.246 231.971 379.087 232.653 379.087C233.231 379.087 233.735 379.204 234.165 379.437C234.603 379.671 234.939 379.997 235.173 380.417V376.231H236.349V386.311H235.285L235.187 385.149C235.037 385.383 234.846 385.602 234.613 385.807C234.379 386.003 234.099 386.167 233.773 386.297C233.446 386.419 233.068 386.479 232.639 386.479ZM232.779 385.457C233.245 385.457 233.656 385.345 234.011 385.121C234.365 384.897 234.641 384.589 234.837 384.197C235.033 383.796 235.131 383.325 235.131 382.783C235.131 382.251 235.033 381.785 234.837 381.383C234.641 380.982 234.365 380.669 234.011 380.445C233.656 380.221 233.245 380.109 232.779 380.109C232.321 380.109 231.915 380.221 231.561 380.445C231.206 380.669 230.931 380.982 230.735 381.383C230.539 381.785 230.441 382.251 230.441 382.783C230.441 383.325 230.539 383.796 230.735 384.197C230.931 384.589 231.206 384.897 231.561 385.121C231.915 385.345 232.321 385.457 232.779 385.457ZM240.87 386.479C240.329 386.479 239.853 386.372 239.442 386.157C239.041 385.943 238.728 385.611 238.504 385.163C238.289 384.715 238.182 384.155 238.182 383.483V379.255H239.358V383.357C239.358 384.057 239.512 384.585 239.82 384.939C240.128 385.294 240.562 385.471 241.122 385.471C241.514 385.471 241.869 385.378 242.186 385.191C242.503 384.995 242.751 384.72 242.928 384.365C243.115 384.001 243.208 383.558 243.208 383.035V379.255H244.384V386.311H243.32L243.25 385.079C243.035 385.518 242.718 385.863 242.298 386.115C241.878 386.358 241.402 386.479 240.87 386.479ZM246.334 386.311V376.231H247.51V386.311H246.334ZM252.223 386.311C251.803 386.311 251.439 386.246 251.131 386.115C250.823 385.985 250.585 385.765 250.417 385.457C250.258 385.14 250.179 384.715 250.179 384.183V380.249H248.947V379.255H250.179L250.333 377.547H251.355V379.255H253.399V380.249H251.355V384.183C251.355 384.622 251.443 384.921 251.621 385.079C251.798 385.229 252.111 385.303 252.559 385.303H253.315V386.311H252.223Z" fill="black"/>
</g>
<path d="M172.4 452.311V443.911H175.136C175.8 443.911 176.344 444.023 176.768 444.247C177.2 444.463 177.516 444.755 177.716 445.123C177.924 445.491 178.028 445.911 178.028 446.383C178.028 446.839 177.924 447.255 177.716 447.631C177.516 447.999 177.204 448.295 176.78 448.519C176.356 448.743 175.808 448.855 175.136 448.855H173.408V452.311H172.4ZM173.408 448.003H175.124C175.796 448.003 176.276 447.855 176.564 447.559C176.852 447.263 176.996 446.871 176.996 446.383C176.996 445.863 176.852 445.463 176.564 445.183C176.276 444.895 175.796 444.751 175.124 444.751H173.408V448.003ZM179.301 452.311V446.263H180.213L180.285 447.415C180.421 447.143 180.593 446.911 180.801 446.719C181.017 446.527 181.273 446.379 181.569 446.275C181.873 446.171 182.217 446.119 182.601 446.119V447.175H182.229C181.973 447.175 181.729 447.211 181.497 447.283C181.265 447.347 181.057 447.455 180.873 447.607C180.697 447.759 180.557 447.967 180.453 448.231C180.357 448.487 180.309 448.807 180.309 449.191V452.311H179.301ZM186.22 452.455C185.66 452.455 185.156 452.327 184.708 452.071C184.26 451.807 183.908 451.439 183.652 450.967C183.396 450.487 183.268 449.931 183.268 449.299C183.268 448.651 183.396 448.091 183.652 447.619C183.916 447.139 184.272 446.771 184.72 446.515C185.176 446.251 185.684 446.119 186.244 446.119C186.82 446.119 187.328 446.251 187.768 446.515C188.216 446.771 188.568 447.139 188.824 447.619C189.088 448.091 189.22 448.647 189.22 449.287C189.22 449.927 189.088 450.487 188.824 450.967C188.56 451.439 188.204 451.807 187.756 452.071C187.308 452.327 186.796 452.455 186.22 452.455ZM186.232 451.591C186.576 451.591 186.896 451.507 187.192 451.339C187.488 451.163 187.728 450.903 187.912 450.559C188.096 450.215 188.188 449.791 188.188 449.287C188.188 448.775 188.096 448.351 187.912 448.015C187.736 447.671 187.5 447.415 187.204 447.247C186.916 447.071 186.596 446.983 186.244 446.983C185.908 446.983 185.588 447.071 185.284 447.247C184.988 447.415 184.748 447.671 184.564 448.015C184.388 448.351 184.3 448.775 184.3 449.287C184.3 449.791 184.388 450.215 184.564 450.559C184.748 450.903 184.984 451.163 185.272 451.339C185.568 451.507 185.888 451.591 186.232 451.591ZM192.775 452.311C192.415 452.311 192.103 452.255 191.839 452.143C191.575 452.031 191.371 451.843 191.227 451.579C191.091 451.307 191.023 450.943 191.023 450.487V447.115H189.967V446.263H191.023L191.155 444.799H192.031V446.263H193.783V447.115H192.031V450.487C192.031 450.863 192.107 451.119 192.259 451.255C192.411 451.383 192.679 451.447 193.063 451.447H193.711V452.311H192.775ZM197.586 452.455C197.018 452.455 196.514 452.323 196.074 452.059C195.642 451.795 195.302 451.427 195.054 450.955C194.806 450.475 194.682 449.919 194.682 449.287C194.682 448.647 194.802 448.091 195.042 447.619C195.29 447.147 195.634 446.779 196.074 446.515C196.522 446.251 197.034 446.119 197.61 446.119C198.202 446.119 198.702 446.251 199.11 446.515C199.526 446.779 199.842 447.127 200.058 447.559C200.282 447.983 200.394 448.451 200.394 448.963C200.394 449.043 200.394 449.127 200.394 449.215C200.394 449.303 200.39 449.403 200.382 449.515H195.438V448.735H199.41C199.386 448.183 199.202 447.751 198.858 447.439C198.522 447.127 198.098 446.971 197.586 446.971C197.242 446.971 196.922 447.051 196.626 447.211C196.338 447.363 196.106 447.591 195.93 447.895C195.754 448.191 195.666 448.563 195.666 449.011V449.347C195.666 449.843 195.754 450.259 195.93 450.595C196.114 450.931 196.35 451.183 196.638 451.351C196.934 451.519 197.25 451.603 197.586 451.603C198.01 451.603 198.358 451.511 198.63 451.327C198.91 451.135 199.11 450.879 199.23 450.559H200.226C200.13 450.919 199.962 451.243 199.722 451.531C199.482 451.819 199.182 452.047 198.822 452.215C198.47 452.375 198.058 452.455 197.586 452.455ZM204.478 452.455C203.91 452.455 203.398 452.323 202.942 452.059C202.494 451.795 202.142 451.427 201.886 450.955C201.63 450.475 201.502 449.923 201.502 449.299C201.502 448.659 201.63 448.103 201.886 447.631C202.142 447.159 202.494 446.791 202.942 446.527C203.398 446.255 203.91 446.119 204.478 446.119C205.198 446.119 205.798 446.307 206.278 446.683C206.758 447.051 207.062 447.547 207.19 448.171H206.158C206.078 447.795 205.882 447.503 205.57 447.295C205.258 447.087 204.89 446.983 204.466 446.983C204.122 446.983 203.802 447.071 203.506 447.247C203.21 447.415 202.974 447.671 202.798 448.015C202.622 448.359 202.534 448.783 202.534 449.287C202.534 449.663 202.586 449.999 202.69 450.295C202.794 450.583 202.934 450.823 203.11 451.015C203.286 451.207 203.49 451.355 203.722 451.459C203.962 451.555 204.21 451.603 204.466 451.603C204.754 451.603 205.014 451.559 205.246 451.471C205.478 451.375 205.674 451.235 205.834 451.051C205.994 450.867 206.102 450.651 206.158 450.403H207.19C207.062 451.011 206.754 451.507 206.266 451.891C205.786 452.267 205.19 452.455 204.478 452.455ZM210.833 452.311C210.473 452.311 210.161 452.255 209.897 452.143C209.633 452.031 209.429 451.843 209.285 451.579C209.149 451.307 209.081 450.943 209.081 450.487V447.115H208.025V446.263H209.081L209.213 444.799H210.089V446.263H211.841V447.115H210.089V450.487C210.089 450.863 210.165 451.119 210.317 451.255C210.469 451.383 210.737 451.447 211.121 451.447H211.769V452.311H210.833ZM215.644 452.455C215.076 452.455 214.572 452.323 214.132 452.059C213.7 451.795 213.36 451.427 213.112 450.955C212.864 450.475 212.74 449.919 212.74 449.287C212.74 448.647 212.86 448.091 213.1 447.619C213.348 447.147 213.692 446.779 214.132 446.515C214.58 446.251 215.092 446.119 215.668 446.119C216.26 446.119 216.76 446.251 217.168 446.515C217.584 446.779 217.9 447.127 218.116 447.559C218.34 447.983 218.452 448.451 218.452 448.963C218.452 449.043 218.452 449.127 218.452 449.215C218.452 449.303 218.448 449.403 218.44 449.515H213.496V448.735H217.468C217.444 448.183 217.26 447.751 216.916 447.439C216.58 447.127 216.156 446.971 215.644 446.971C215.3 446.971 214.98 447.051 214.684 447.211C214.396 447.363 214.164 447.591 213.988 447.895C213.812 448.191 213.724 448.563 213.724 449.011V449.347C213.724 449.843 213.812 450.259 213.988 450.595C214.172 450.931 214.408 451.183 214.696 451.351C214.992 451.519 215.308 451.603 215.644 451.603C216.068 451.603 216.416 451.511 216.688 451.327C216.968 451.135 217.168 450.879 217.288 450.559H218.284C218.188 450.919 218.02 451.243 217.78 451.531C217.54 451.819 217.24 452.047 216.88 452.215C216.528 452.375 216.116 452.455 215.644 452.455ZM222.477 452.455C221.893 452.455 221.381 452.319 220.941 452.047C220.501 451.767 220.161 451.387 219.921 450.907C219.681 450.427 219.561 449.883 219.561 449.275C219.561 448.667 219.681 448.127 219.921 447.655C220.161 447.175 220.501 446.799 220.941 446.527C221.389 446.255 221.905 446.119 222.489 446.119C222.985 446.119 223.417 446.219 223.785 446.419C224.161 446.619 224.449 446.899 224.649 447.259V443.671H225.657V452.311H224.745L224.661 451.315C224.533 451.515 224.369 451.703 224.169 451.879C223.969 452.047 223.729 452.187 223.449 452.299C223.169 452.403 222.845 452.455 222.477 452.455ZM222.597 451.579C222.997 451.579 223.349 451.483 223.653 451.291C223.957 451.099 224.193 450.835 224.361 450.499C224.529 450.155 224.613 449.751 224.613 449.287C224.613 448.831 224.529 448.431 224.361 448.087C224.193 447.743 223.957 447.475 223.653 447.283C223.349 447.091 222.997 446.995 222.597 446.995C222.205 446.995 221.857 447.091 221.553 447.283C221.249 447.475 221.013 447.743 220.845 448.087C220.677 448.431 220.593 448.831 220.593 449.287C220.593 449.751 220.677 450.155 220.845 450.499C221.013 450.835 221.249 451.099 221.553 451.291C221.857 451.483 222.205 451.579 222.597 451.579ZM233.692 452.455C233.348 452.455 233.036 452.407 232.756 452.311C232.484 452.207 232.244 452.071 232.036 451.903C231.828 451.735 231.656 451.539 231.52 451.315L231.436 452.311H230.524V443.671H231.532V447.259C231.724 446.947 232 446.679 232.36 446.455C232.72 446.231 233.164 446.119 233.692 446.119C234.276 446.119 234.788 446.259 235.228 446.539C235.668 446.811 236.008 447.187 236.248 447.667C236.496 448.139 236.62 448.679 236.62 449.287C236.62 449.895 236.496 450.439 236.248 450.919C236.008 451.399 235.668 451.775 235.228 452.047C234.788 452.319 234.276 452.455 233.692 452.455ZM233.572 451.579C233.964 451.579 234.312 451.483 234.616 451.291C234.92 451.099 235.156 450.835 235.324 450.499C235.5 450.155 235.588 449.751 235.588 449.287C235.588 448.831 235.5 448.431 235.324 448.087C235.156 447.743 234.92 447.475 234.616 447.283C234.312 447.091 233.964 446.995 233.572 446.995C233.172 446.995 232.82 447.091 232.516 447.283C232.212 447.475 231.976 447.743 231.808 448.087C231.64 448.431 231.556 448.831 231.556 449.287C231.556 449.751 231.64 450.155 231.808 450.499C231.976 450.835 232.212 451.099 232.516 451.291C232.82 451.483 233.172 451.579 233.572 451.579ZM238.215 454.951L239.691 451.639H239.343L236.967 446.263H238.059L240.027 450.883L242.091 446.263H243.135L239.271 454.951H238.215Z" fill="black"/>
<path d="M200.626 476.469C199.761 476.469 199.005 476.272 198.358 475.879C197.711 475.485 197.208 474.935 196.85 474.227C196.492 473.519 196.313 472.693 196.313 471.749C196.313 470.813 196.492 469.987 196.85 469.271C197.217 468.554 197.737 467.995 198.41 467.592C199.092 467.182 199.896 466.976 200.823 466.976C201.863 466.976 202.733 467.23 203.432 467.737C204.131 468.235 204.581 468.93 204.782 469.821H203.288C203.157 469.314 202.881 468.917 202.462 468.628C202.042 468.331 201.491 468.182 200.81 468.182C200.163 468.182 199.599 468.327 199.118 468.615C198.646 468.904 198.284 469.314 198.03 469.848C197.777 470.381 197.65 471.014 197.65 471.749C197.65 472.492 197.777 473.13 198.03 473.663C198.284 474.196 198.642 474.603 199.105 474.882C199.568 475.162 200.102 475.302 200.705 475.302C201.631 475.302 202.326 475.035 202.789 474.502C203.261 473.969 203.537 473.256 203.615 472.365H201.085V471.355H204.94V476.311H203.747L203.629 474.908C203.419 475.249 203.174 475.538 202.894 475.774C202.623 476.001 202.304 476.176 201.937 476.298C201.57 476.412 201.133 476.469 200.626 476.469ZM208.79 476.469C208.248 476.469 207.798 476.377 207.44 476.193C207.081 476.01 206.815 475.765 206.64 475.459C206.465 475.145 206.378 474.808 206.378 474.45C206.378 474.013 206.491 473.641 206.719 473.335C206.946 473.02 207.269 472.78 207.689 472.614C208.108 472.448 208.611 472.365 209.197 472.365H210.914C210.914 471.98 210.857 471.661 210.744 471.408C210.63 471.154 210.46 470.966 210.232 470.844C210.014 470.713 209.734 470.647 209.393 470.647C209 470.647 208.663 470.743 208.384 470.936C208.104 471.119 207.929 471.395 207.859 471.762H206.548C206.601 471.299 206.758 470.905 207.02 470.582C207.291 470.25 207.636 469.996 208.056 469.821C208.475 469.638 208.921 469.546 209.393 469.546C210.014 469.546 210.534 469.655 210.953 469.874C211.373 470.092 211.688 470.403 211.897 470.805C212.116 471.198 212.225 471.67 212.225 472.221V476.311H211.085L210.98 475.197C210.884 475.372 210.77 475.538 210.639 475.695C210.508 475.853 210.35 475.988 210.167 476.102C209.992 476.215 209.787 476.303 209.551 476.364C209.323 476.434 209.07 476.469 208.79 476.469ZM209.039 475.407C209.319 475.407 209.572 475.35 209.8 475.236C210.027 475.123 210.219 474.97 210.377 474.777C210.543 474.576 210.665 474.353 210.744 474.109C210.831 473.855 210.879 473.597 210.888 473.335V473.296H209.328C208.952 473.296 208.646 473.344 208.41 473.44C208.183 473.527 208.017 473.65 207.912 473.807C207.807 473.964 207.754 474.148 207.754 474.358C207.754 474.576 207.802 474.764 207.899 474.922C208.003 475.07 208.152 475.188 208.344 475.276C208.537 475.363 208.768 475.407 209.039 475.407ZM216.485 476.311C216.066 476.311 215.703 476.246 215.397 476.115C215.091 475.984 214.855 475.765 214.689 475.459C214.523 475.153 214.44 474.738 214.44 474.214V470.818H213.299V469.703H214.44L214.597 468.051H215.751V469.703H217.626V470.818H215.751V474.227C215.751 474.603 215.83 474.86 215.987 475C216.144 475.131 216.415 475.197 216.8 475.197H217.56V476.311H216.485ZM221.882 476.469C221.252 476.469 220.693 476.325 220.203 476.036C219.714 475.748 219.329 475.346 219.05 474.83C218.779 474.314 218.643 473.715 218.643 473.034C218.643 472.334 218.779 471.727 219.05 471.211C219.329 470.687 219.714 470.28 220.203 469.992C220.693 469.695 221.261 469.546 221.908 469.546C222.555 469.546 223.11 469.69 223.573 469.979C224.036 470.267 224.395 470.652 224.648 471.132C224.902 471.604 225.028 472.129 225.028 472.706C225.028 472.793 225.024 472.889 225.015 472.994C225.015 473.09 225.011 473.2 225.002 473.322H219.6V472.391H223.717C223.691 471.84 223.507 471.412 223.167 471.106C222.826 470.792 222.402 470.634 221.895 470.634C221.536 470.634 221.209 470.717 220.911 470.883C220.614 471.041 220.374 471.277 220.19 471.591C220.016 471.897 219.928 472.286 219.928 472.758V473.125C219.928 473.615 220.016 474.03 220.19 474.371C220.374 474.703 220.614 474.957 220.911 475.131C221.209 475.297 221.532 475.381 221.882 475.381C222.301 475.381 222.647 475.289 222.917 475.105C223.188 474.922 223.389 474.672 223.521 474.358H224.832C224.718 474.76 224.526 475.123 224.255 475.446C223.984 475.761 223.647 476.01 223.245 476.193C222.852 476.377 222.397 476.469 221.882 476.469ZM227.566 476.311L225.626 469.703H226.924L228.366 475.21L228.117 475.197L229.717 469.703H231.185L232.785 475.197L232.536 475.21L233.965 469.703H235.289L233.348 476.311H231.998L230.32 470.582H230.582L228.904 476.311H227.566ZM239.231 476.469C238.602 476.469 238.042 476.325 237.553 476.036C237.063 475.748 236.679 475.346 236.399 474.83C236.128 474.314 235.993 473.715 235.993 473.034C235.993 472.334 236.128 471.727 236.399 471.211C236.679 470.687 237.063 470.28 237.553 469.992C238.042 469.695 238.61 469.546 239.257 469.546C239.904 469.546 240.459 469.69 240.922 469.979C241.386 470.267 241.744 470.652 241.998 471.132C242.251 471.604 242.378 472.129 242.378 472.706C242.378 472.793 242.373 472.889 242.365 472.994C242.365 473.09 242.36 473.2 242.352 473.322H236.95V472.391H241.067C241.04 471.84 240.857 471.412 240.516 471.106C240.175 470.792 239.751 470.634 239.244 470.634C238.886 470.634 238.558 470.717 238.261 470.883C237.964 471.041 237.723 471.277 237.54 471.591C237.365 471.897 237.277 472.286 237.277 472.758V473.125C237.277 473.615 237.365 474.03 237.54 474.371C237.723 474.703 237.964 474.957 238.261 475.131C238.558 475.297 238.881 475.381 239.231 475.381C239.651 475.381 239.996 475.289 240.267 475.105C240.538 474.922 240.739 474.672 240.87 474.358H242.181C242.067 474.76 241.875 475.123 241.604 475.446C241.333 475.761 240.997 476.01 240.595 476.193C240.201 476.377 239.747 476.469 239.231 476.469ZM247.44 476.469C247.082 476.469 246.754 476.416 246.457 476.311C246.168 476.215 245.915 476.08 245.696 475.905C245.478 475.73 245.294 475.529 245.146 475.302L245.014 476.311H243.834V466.871H245.146V470.739C245.355 470.407 245.648 470.127 246.024 469.9C246.409 469.664 246.881 469.546 247.44 469.546C248.069 469.546 248.624 469.699 249.105 470.005C249.586 470.302 249.957 470.713 250.22 471.237C250.491 471.753 250.626 472.347 250.626 473.02C250.626 473.676 250.491 474.266 250.22 474.79C249.957 475.315 249.586 475.726 249.105 476.023C248.624 476.32 248.069 476.469 247.44 476.469ZM247.23 475.328C247.632 475.328 247.986 475.232 248.292 475.04C248.607 474.847 248.852 474.576 249.026 474.227C249.21 473.877 249.302 473.471 249.302 473.007C249.302 472.544 249.21 472.142 249.026 471.801C248.852 471.451 248.607 471.181 248.292 470.988C247.986 470.787 247.632 470.687 247.23 470.687C246.819 470.687 246.457 470.787 246.142 470.988C245.836 471.181 245.596 471.451 245.421 471.801C245.246 472.142 245.159 472.544 245.159 473.007C245.159 473.471 245.246 473.877 245.421 474.227C245.596 474.576 245.836 474.847 246.142 475.04C246.457 475.232 246.819 475.328 247.23 475.328Z" fill="black"/>
<path d="M189.416 467.914L176.855 463.311V475.897L189.416 480.499V467.914Z" fill="black"/>
<rect width="12.5604" height="12.5604" transform="matrix(-1 0 0 1 175.864 467.939)" fill="black"/>
</g>
<defs>
<filter id="filter0_d_6_871" x="0" y="0" width="425" height="540.499" filterUnits="userSpaceOnUse" color-interpolation-filters="sRGB">
<feFlood flood-opacity="0" result="BackgroundImageFix"/>
<feColorMatrix in="SourceAlpha" type="matrix" values="0 0 0 0 0 0 0 0 0 0 0 0 0 0 0 0 0 0 127 0" result="hardAlpha"/>
<feOffset dx="5" dy="5"/>
<feGaussianBlur stdDeviation="15"/>
<feComposite in2="hardAlpha" operator="out"/>
<feColorMatrix type="matrix" values="0 0 0 0 0 0 0 0 0 0 0 0 0 0 0 0 0 0 0.03 0"/>
<feBlend mode="normal" in2="BackgroundImageFix" result="effect1_dropShadow_6_871"/>
<feBlend mode="normal" in="SourceGraphic" in2="effect1_dropShadow_6_871" result="shape"/>
</filter>
<filter id="filter1_ii_6_871" x="165" y="85" width="86" height="90" filterUnits="userSpaceOnUse" color-interpolation-filters="sRGB">
<feFlood flood-opacity="0" result="BackgroundImageFix"/>
<feBlend mode="normal" in="SourceGraphic" in2="BackgroundImageFix" result="shape"/>
<feColorMatrix in="SourceAlpha" type="matrix" values="0 0 0 0 0 0 0 0 0 0 0 0 0 0 0 0 0 0 127 0" result="hardAlpha"/>
<feOffset dy="4"/>
<feGaussianBlur stdDeviation="2"/>
<feComposite in2="hardAlpha" operator="arithmetic" k2="-1" k3="1"/>
<feColorMatrix type="matrix" values="0 0 0 0 1 0 0 0 0 0.364706 0 0 0 0 0.364706 0 0 0 0.2 0"/>
<feBlend mode="normal" in2="shape" result="effect1_innerShadow_6_871"/>
<feColorMatrix in="SourceAlpha" type="matrix" values="0 0 0 0 0 0 0 0 0 0 0 0 0 0 0 0 0 0 127 0" result="hardAlpha"/>
<feOffset dy="4"/>
<feGaussianBlur stdDeviation="2"/>
<feComposite in2="hardAlpha" operator="arithmetic" k2="-1" k3="1"/>
<feColorMatrix type="matrix" values="0 0 0 0 1 0 0 0 0 0.364706 0 0 0 0 0.364706 0 0 0 0.2 0"/>
<feBlend mode="normal" in2="effect1_innerShadow_6_871" result="effect2_innerShadow_6_871"/>
</filter>
<filter id="filter2_ii_6_871" x="140" y="60" width="136" height="140" filterUnits="userSpaceOnUse" color-interpolation-filters="sRGB">
<feFlood flood-opacity="0" result="BackgroundImageFix"/>
<feBlend mode="normal" in="SourceGraphic" in2="BackgroundImageFix" result="shape"/>
<feColorMatrix in="SourceAlpha" type="matrix" values="0 0 0 0 0 0 0 0 0 0 0 0 0 0 0 0 0 0 127 0" result="hardAlpha"/>
<feOffset dy="4"/>
<feGaussianBlur stdDeviation="2"/>
<feComposite in2="hardAlpha" operator="arithmetic" k2="-1" k3="1"/>
<feColorMatrix type="matrix" values="0 0 0 0 1 0 0 0 0 0.364706 0 0 0 0 0.364706 0 0 0 0.2 0"/>
<feBlend mode="normal" in2="shape" result="effect1_innerShadow_6_871"/>
<feColorMatrix in="SourceAlpha" type="matrix" values="0 0 0 0 0 0 0 0 0 0 0 0 0 0 0 0 0 0 127 0" result="hardAlpha"/>
<feOffset dy="4"/>
<feGaussianBlur stdDeviation="2"/>
<feComposite in2="hardAlpha" operator="arithmetic" k2="-1" k3="1"/>
<feColorMatrix type="matrix" values="0 0 0 0 1 0 0 0 0 0.364706 0 0 0 0 0.364706 0 0 0 0.2 0"/>
<feBlend mode="normal" in2="effect1_innerShadow_6_871" result="effect2_innerShadow_6_871"/>
</filter>
<filter id="filter3_ii_6_871" x="117" y="37" width="182" height="186" filterUnits="userSpaceOnUse" color-interpolation-filters="sRGB">
<feFlood flood-opacity="0" result="BackgroundImageFix"/>
<feBlend mode="normal" in="SourceGraphic" in2="BackgroundImageFix" result="shape"/>
<feColorMatrix in="SourceAlpha" type="matrix" values="0 0 0 0 0 0 0 0 0 0 0 0 0 0 0 0 0 0 127 0" result="hardAlpha"/>
<feOffset dy="4"/>
<feGaussianBlur stdDeviation="2"/>
<feComposite in2="hardAlpha" operator="arithmetic" k2="-1" k3="1"/>
<feColorMatrix type="matrix" values="0 0 0 0 1 0 0 0 0 0.364706 0 0 0 0 0.364706 0 0 0 0.2 0"/>
<feBlend mode="normal" in2="shape" result="effect1_innerShadow_6_871"/>
<feColorMatrix in="SourceAlpha" type="matrix" values="0 0 0 0 0 0 0 0 0 0 0 0 0 0 0 0 0 0 127 0" result="hardAlpha"/>
<feOffset dy="4"/>
<feGaussianBlur stdDeviation="2"/>
<feComposite in2="hardAlpha" operator="arithmetic" k2="-1" k3="1"/>
<feColorMatrix type="matrix" values="0 0 0 0 1 0 0 0 0 0.364706 0 0 0 0 0.364706 0 0 0 0.2 0"/>
<feBlend mode="normal" in2="effect1_innerShadow_6_871" result="effect2_innerShadow_6_871"/>
</filter>
<filter id="filter4_i_6_871" x="45" y="280.311" width="327" height="122" filterUnits="userSpaceOnUse" color-interpolation-filters="sRGB">
<feFlood flood-opacity="0" result="BackgroundImageFix"/>
<feBlend mode="normal" in="SourceGraphic" in2="BackgroundImageFix" result="shape"/>
<feColorMatrix in="SourceAlpha" type="matrix" values="0 0 0 0 0 0 0 0 0 0 0 0 0 0 0 0 0 0 127 0" result="hardAlpha"/>
<feOffset dx="2" dy="2"/>
<feGaussianBlur stdDeviation="7.5"/>
<feComposite in2="hardAlpha" operator="arithmetic" k2="-1" k3="1"/>
<feColorMatrix type="matrix" values="0 0 0 0 0 0 0 0 0 0 0 0 0 0 0 0 0 0 0.03 0"/>
<feBlend mode="normal" in2="shape" result="effect1_innerShadow_6_871"/>
</filter>
<clipPath id="clip0_6_871">
<rect width="365" height="103" fill="white" transform="translate(25 25)"/>
</clipPath>
</defs>
</svg>
