<svg width="267" height="52" viewBox="0 0 267 52" fill="none" xmlns="http://www.w3.org/2000/svg">
<path d="M112.915 40.476C110.297 40.476 108.009 39.881 106.052 38.691C104.095 37.501 102.575 35.835 101.491 33.693C100.406 31.551 99.8643 29.052 99.8643 26.196C99.8643 23.3664 100.406 20.8674 101.491 18.699C102.601 16.5306 104.175 14.8381 106.211 13.6217C108.274 12.3788 110.707 11.7573 113.51 11.7573C116.657 11.7573 119.288 12.5242 121.403 14.058C123.519 15.5653 124.881 17.6677 125.489 20.365H120.967C120.57 18.8312 119.737 17.628 118.468 16.7553C117.199 15.8562 115.533 15.4067 113.47 15.4067C111.513 15.4067 109.807 15.843 108.353 16.7157C106.925 17.5883 105.828 18.8312 105.061 20.4443C104.294 22.0574 103.91 23.9747 103.91 26.196C103.91 28.4438 104.294 30.3742 105.061 31.9873C105.828 33.6004 106.912 34.8301 108.313 35.6763C109.715 36.5226 111.328 36.9457 113.153 36.9457C115.956 36.9457 118.058 36.1391 119.46 34.526C120.888 32.9129 121.721 30.7577 121.959 28.0603H114.303V25.006H125.965V40H122.355L121.998 35.7557C121.364 36.787 120.623 37.6597 119.777 38.3737C118.957 39.0612 117.992 39.5901 116.881 39.9603C115.771 40.3041 114.448 40.476 112.915 40.476ZM137.614 40.476C135.974 40.476 134.613 40.1983 133.528 39.643C132.444 39.0877 131.638 38.3472 131.109 37.4217C130.58 36.4697 130.315 35.4516 130.315 34.3673C130.315 33.0451 130.659 31.9212 131.347 30.9957C132.034 30.0437 133.013 29.3164 134.282 28.814C135.551 28.3116 137.072 28.0603 138.844 28.0603H144.04C144.04 26.8968 143.868 25.9316 143.524 25.1647C143.181 24.3978 142.665 23.8292 141.977 23.459C141.316 23.0623 140.47 22.864 139.439 22.864C138.249 22.864 137.231 23.1549 136.384 23.7367C135.538 24.292 135.009 25.125 134.798 26.2357H130.831C130.99 24.8341 131.466 23.6441 132.259 22.6657C133.079 21.6608 134.123 20.8939 135.393 20.365C136.662 19.8097 138.011 19.532 139.439 19.532C141.316 19.532 142.89 19.8626 144.159 20.5237C145.428 21.1848 146.38 22.1236 147.015 23.34C147.676 24.53 148.007 25.958 148.007 27.624V40H144.556L144.238 36.6283C143.947 37.1572 143.604 37.6597 143.207 38.1357C142.81 38.6117 142.334 39.0216 141.779 39.3653C141.25 39.7091 140.629 39.9736 139.915 40.1587C139.227 40.3702 138.46 40.476 137.614 40.476ZM138.368 37.263C139.214 37.263 139.981 37.0911 140.668 36.7473C141.356 36.4036 141.938 35.9408 142.414 35.359C142.916 34.7508 143.286 34.0764 143.524 33.336C143.789 32.5691 143.934 31.789 143.961 30.9957V30.8767H139.24C138.103 30.8767 137.178 31.0221 136.464 31.313C135.776 31.5774 135.274 31.9477 134.956 32.4237C134.639 32.8997 134.48 33.455 134.48 34.0897C134.48 34.7508 134.626 35.3193 134.917 35.7953C135.234 36.2449 135.684 36.6019 136.265 36.8663C136.847 37.1308 137.548 37.263 138.368 37.263ZM160.894 40C159.625 40 158.528 39.8017 157.602 39.405C156.676 39.0083 155.962 38.3472 155.46 37.4217C154.958 36.4961 154.706 35.24 154.706 33.6533V23.3797H151.255V20.008H154.706L155.182 15.01H158.673V20.008H164.345V23.3797H158.673V33.693C158.673 34.8301 158.911 35.6102 159.387 36.0333C159.863 36.43 160.683 36.6283 161.846 36.6283H164.147V40H160.894ZM177.221 40.476C175.317 40.476 173.625 40.0397 172.144 39.167C170.663 38.2943 169.499 37.0779 168.653 35.5177C167.833 33.9574 167.423 32.146 167.423 30.0833C167.423 27.9678 167.833 26.1299 168.653 24.5697C169.499 22.983 170.663 21.7533 172.144 20.8807C173.625 19.9816 175.344 19.532 177.3 19.532C179.257 19.532 180.937 19.9683 182.338 20.841C183.74 21.7137 184.824 22.8772 185.591 24.3317C186.358 25.7597 186.741 27.3463 186.741 29.0917C186.741 29.3561 186.728 29.647 186.701 29.9643C186.701 30.2552 186.688 30.5858 186.662 30.956H170.319V28.1397H182.774C182.695 26.4737 182.14 25.1779 181.108 24.2523C180.077 23.3003 178.795 22.8243 177.261 22.8243C176.177 22.8243 175.185 23.0756 174.286 23.578C173.387 24.054 172.659 24.768 172.104 25.72C171.575 26.6456 171.311 27.8223 171.311 29.2503V30.361C171.311 31.8419 171.575 33.098 172.104 34.1293C172.659 35.1342 173.387 35.9011 174.286 36.43C175.185 36.9324 176.163 37.1837 177.221 37.1837C178.49 37.1837 179.535 36.906 180.355 36.3507C181.175 35.7953 181.783 35.0417 182.179 34.0897H186.146C185.802 35.3061 185.221 36.4036 184.401 37.382C183.581 38.334 182.563 39.0877 181.346 39.643C180.156 40.1983 178.781 40.476 177.221 40.476ZM194.419 40L188.549 20.008H192.476L196.839 36.668L196.085 36.6283L200.925 20.008H205.367L210.207 36.6283L209.453 36.668L213.777 20.008H217.783L211.912 40H207.827L202.749 22.6657H203.543L198.465 40H194.419ZM229.71 40.476C227.806 40.476 226.113 40.0397 224.632 39.167C223.152 38.2943 221.988 37.0779 221.142 35.5177C220.322 33.9574 219.912 32.146 219.912 30.0833C219.912 27.9678 220.322 26.1299 221.142 24.5697C221.988 22.983 223.152 21.7533 224.632 20.8807C226.113 19.9816 227.832 19.532 229.789 19.532C231.746 19.532 233.425 19.9683 234.827 20.841C236.228 21.7137 237.313 22.8772 238.079 24.3317C238.846 25.7597 239.23 27.3463 239.23 29.0917C239.23 29.3561 239.217 29.647 239.19 29.9643C239.19 30.2552 239.177 30.5858 239.15 30.956H222.808V28.1397H235.263C235.184 26.4737 234.628 25.1779 233.597 24.2523C232.566 23.3003 231.283 22.8243 229.749 22.8243C228.665 22.8243 227.674 23.0756 226.774 23.578C225.875 24.054 225.148 24.768 224.593 25.72C224.064 26.6456 223.799 27.8223 223.799 29.2503V30.361C223.799 31.8419 224.064 33.098 224.593 34.1293C225.148 35.1342 225.875 35.9011 226.774 36.43C227.674 36.9324 228.652 37.1837 229.71 37.1837C230.979 37.1837 232.024 36.906 232.843 36.3507C233.663 35.7953 234.271 35.0417 234.668 34.0897H238.635C238.291 35.3061 237.709 36.4036 236.889 37.382C236.07 38.334 235.052 39.0877 233.835 39.643C232.645 40.1983 231.27 40.476 229.71 40.476ZM254.545 40.476C253.461 40.476 252.469 40.3173 251.57 40C250.697 39.7091 249.931 39.2992 249.269 38.7703C248.608 38.2414 248.053 37.6332 247.603 36.9457L247.207 40H243.637V11.44H247.603V23.1417C248.238 22.1368 249.124 21.2906 250.261 20.603C251.425 19.889 252.853 19.532 254.545 19.532C256.449 19.532 258.128 19.9948 259.583 20.9203C261.037 21.8194 262.161 23.0623 262.954 24.649C263.774 26.2092 264.184 28.0074 264.184 30.0437C264.184 32.027 263.774 33.812 262.954 35.3987C262.161 36.9853 261.037 38.2282 259.583 39.1273C258.128 40.0264 256.449 40.476 254.545 40.476ZM253.91 37.025C255.127 37.025 256.198 36.7341 257.123 36.1523C258.075 35.5706 258.816 34.7508 259.345 33.693C259.9 32.6352 260.178 31.4056 260.178 30.004C260.178 28.6024 259.9 27.386 259.345 26.3547C258.816 25.2969 258.075 24.4771 257.123 23.8953C256.198 23.2871 255.127 22.983 253.91 22.983C252.668 22.983 251.57 23.2871 250.618 23.8953C249.693 24.4771 248.965 25.2969 248.436 26.3547C247.908 27.386 247.643 28.6024 247.643 30.004C247.643 31.4056 247.908 32.6352 248.436 33.693C248.965 34.7508 249.693 35.5706 250.618 36.1523C251.57 36.7341 252.668 37.025 253.91 37.025Z" fill="black"/>
<path d="M79 13.9235L41 0V38.0765L79 52V13.9235Z" fill="black"/>
<rect width="38" height="38" transform="matrix(-1 0 0 1 38 14)" fill="black"/>
</svg>
