<svg width="169" height="105" viewBox="0 0 169 105" fill="none" xmlns="http://www.w3.org/2000/svg">
<path d="M14.9147 93.476C12.2967 93.476 10.0092 92.881 8.05233 91.691C6.09544 90.501 4.57489 88.835 3.49067 86.693C2.40644 84.551 1.86433 82.052 1.86433 79.196C1.86433 76.3664 2.40644 73.8674 3.49067 71.699C4.60133 69.5306 6.17478 67.8381 8.211 66.6217C10.2737 65.3788 12.7066 64.7573 15.5097 64.7573C18.6566 64.7573 21.2878 65.5242 23.4033 67.058C25.5189 68.5653 26.8808 70.6677 27.489 73.365H22.967C22.5703 71.8312 21.7373 70.628 20.468 69.7553C19.1987 68.8562 17.5327 68.4067 15.47 68.4067C13.5131 68.4067 11.8074 68.843 10.353 69.7157C8.925 70.5883 7.82756 71.8312 7.06067 73.4443C6.29378 75.0574 5.91033 76.9747 5.91033 79.196C5.91033 81.4438 6.29378 83.3742 7.06067 84.9873C7.82756 86.6004 8.91178 87.8301 10.3133 88.6763C11.7149 89.5226 13.328 89.9457 15.1527 89.9457C17.9558 89.9457 20.0581 89.1391 21.4597 87.526C22.8877 85.9129 23.7207 83.7577 23.9587 81.0603H16.303V78.006H27.965V93H24.3553L23.9983 88.7557C23.3637 89.787 22.6232 90.6597 21.777 91.3737C20.9572 92.0612 19.992 92.5901 18.8813 92.9603C17.7707 93.3041 16.4484 93.476 14.9147 93.476ZM39.614 93.476C37.9744 93.476 36.6125 93.1983 35.5283 92.643C34.4441 92.0877 33.6375 91.3472 33.1087 90.4217C32.5798 89.4697 32.3153 88.4516 32.3153 87.3673C32.3153 86.0451 32.6591 84.9212 33.3467 83.9957C34.0342 83.0437 35.0127 82.3164 36.282 81.814C37.5513 81.3116 39.0719 81.0603 40.8437 81.0603H46.04C46.04 79.8968 45.8681 78.9316 45.5243 78.1647C45.1805 77.3978 44.6649 76.8292 43.9773 76.459C43.3162 76.0623 42.47 75.864 41.4387 75.864C40.2487 75.864 39.2305 76.1549 38.3843 76.7367C37.5381 77.292 37.0092 78.125 36.7977 79.2357H32.831C32.9897 77.8341 33.4657 76.6441 34.259 75.6657C35.0788 74.6608 36.1233 73.8939 37.3927 73.365C38.662 72.8097 40.0107 72.532 41.4387 72.532C43.3162 72.532 44.8897 72.8626 46.159 73.5237C47.4283 74.1848 48.3803 75.1236 49.015 76.34C49.6761 77.53 50.0067 78.958 50.0067 80.624V93H46.5557L46.2383 89.6283C45.9474 90.1572 45.6037 90.6597 45.207 91.1357C44.8103 91.6117 44.3343 92.0216 43.779 92.3653C43.2501 92.7091 42.6287 92.9736 41.9147 93.1587C41.2271 93.3702 40.4602 93.476 39.614 93.476ZM40.3677 90.263C41.2139 90.263 41.9808 90.0911 42.6683 89.7473C43.3559 89.4036 43.9377 88.9408 44.4137 88.359C44.9161 87.7508 45.2863 87.0764 45.5243 86.336C45.7888 85.5691 45.9342 84.789 45.9607 83.9957V83.8767H41.2403C40.1032 83.8767 39.1777 84.0221 38.4637 84.313C37.7761 84.5774 37.2737 84.9477 36.9563 85.4237C36.639 85.8997 36.4803 86.455 36.4803 87.0897C36.4803 87.7508 36.6258 88.3193 36.9167 88.7953C37.234 89.2449 37.6835 89.6019 38.2653 89.8663C38.8471 90.1308 39.5479 90.263 40.3677 90.263ZM62.8943 93C61.625 93 60.5275 92.8017 59.602 92.405C58.6764 92.0083 57.9624 91.3472 57.46 90.4217C56.9575 89.4961 56.7063 88.24 56.7063 86.6533V76.3797H53.2553V73.008H56.7063L57.1823 68.01H60.673V73.008H66.3453V76.3797H60.673V86.693C60.673 87.8301 60.911 88.6102 61.387 89.0333C61.863 89.43 62.6827 89.6283 63.8463 89.6283H66.147V93H62.8943ZM79.2212 93.476C77.3172 93.476 75.6247 93.0397 74.1438 92.167C72.6629 91.2943 71.4994 90.0779 70.6532 88.5177C69.8334 86.9574 69.4235 85.146 69.4235 83.0833C69.4235 80.9678 69.8334 79.1299 70.6532 77.5697C71.4994 75.983 72.6629 74.7533 74.1438 73.8807C75.6247 72.9816 77.3436 72.532 79.3005 72.532C81.2574 72.532 82.9366 72.9683 84.3382 73.841C85.7397 74.7137 86.8239 75.8772 87.5908 77.3317C88.3577 78.7597 88.7412 80.3463 88.7412 82.0917C88.7412 82.3561 88.7279 82.647 88.7015 82.9643C88.7015 83.2552 88.6883 83.5858 88.6618 83.956H72.3192V81.1397H84.7745C84.6952 79.4737 84.1398 78.1779 83.1085 77.2523C82.0772 76.3003 80.7946 75.8243 79.2608 75.8243C78.1766 75.8243 77.1849 76.0756 76.2858 76.578C75.3867 77.054 74.6595 77.768 74.1042 78.72C73.5753 79.6456 73.3108 80.8223 73.3108 82.2503V83.361C73.3108 84.8419 73.5753 86.098 74.1042 87.1293C74.6595 88.1342 75.3867 88.9011 76.2858 89.43C77.1849 89.9324 78.1634 90.1837 79.2212 90.1837C80.4905 90.1837 81.535 89.906 82.3548 89.3507C83.1746 88.7953 83.7828 88.0417 84.1795 87.0897H88.1462C87.8024 88.3061 87.2206 89.4036 86.4008 90.382C85.581 91.334 84.5629 92.0877 83.3465 92.643C82.1565 93.1983 80.7814 93.476 79.2212 93.476ZM96.4194 93L90.5488 73.008H94.4758L98.8391 89.668L98.0854 89.6283L102.925 73.008H107.367L112.207 89.6283L111.453 89.668L115.777 73.008H119.783L113.912 93H109.827L104.749 75.6657H105.543L100.465 93H96.4194ZM131.71 93.476C129.806 93.476 128.113 93.0397 126.632 92.167C125.152 91.2943 123.988 90.0779 123.142 88.5177C122.322 86.9574 121.912 85.146 121.912 83.0833C121.912 80.9678 122.322 79.1299 123.142 77.5697C123.988 75.983 125.152 74.7533 126.632 73.8807C128.113 72.9816 129.832 72.532 131.789 72.532C133.746 72.532 135.425 72.9683 136.827 73.841C138.228 74.7137 139.313 75.8772 140.079 77.3317C140.846 78.7597 141.23 80.3463 141.23 82.0917C141.23 82.3561 141.217 82.647 141.19 82.9643C141.19 83.2552 141.177 83.5858 141.15 83.956H124.808V81.1397H137.263C137.184 79.4737 136.628 78.1779 135.597 77.2523C134.566 76.3003 133.283 75.8243 131.749 75.8243C130.665 75.8243 129.674 76.0756 128.774 76.578C127.875 77.054 127.148 77.768 126.593 78.72C126.064 79.6456 125.799 80.8223 125.799 82.2503V83.361C125.799 84.8419 126.064 86.098 126.593 87.1293C127.148 88.1342 127.875 88.9011 128.774 89.43C129.674 89.9324 130.652 90.1837 131.71 90.1837C132.979 90.1837 134.024 89.906 134.843 89.3507C135.663 88.7953 136.271 88.0417 136.668 87.0897H140.635C140.291 88.3061 139.709 89.4036 138.889 90.382C138.07 91.334 137.052 92.0877 135.835 92.643C134.645 93.1983 133.27 93.476 131.71 93.476ZM156.545 93.476C155.461 93.476 154.469 93.3173 153.57 93C152.697 92.7091 151.931 92.2992 151.269 91.7703C150.608 91.2414 150.053 90.6332 149.603 89.9457L149.207 93H145.637V64.44H149.603V76.1417C150.238 75.1368 151.124 74.2906 152.261 73.603C153.425 72.889 154.853 72.532 156.545 72.532C158.449 72.532 160.128 72.9948 161.583 73.9203C163.037 74.8194 164.161 76.0623 164.954 77.649C165.774 79.2092 166.184 81.0074 166.184 83.0437C166.184 85.027 165.774 86.812 164.954 88.3987C164.161 89.9853 163.037 91.2282 161.583 92.1273C160.128 93.0264 158.449 93.476 156.545 93.476ZM155.91 90.025C157.127 90.025 158.198 89.7341 159.123 89.1523C160.075 88.5706 160.816 87.7508 161.345 86.693C161.9 85.6352 162.178 84.4056 162.178 83.004C162.178 81.6024 161.9 80.386 161.345 79.3547C160.816 78.2969 160.075 77.4771 159.123 76.8953C158.198 76.2871 157.127 75.983 155.91 75.983C154.668 75.983 153.57 76.2871 152.618 76.8953C151.693 77.4771 150.965 78.2969 150.436 79.3547C149.908 80.386 149.643 81.6024 149.643 83.004C149.643 84.4056 149.908 85.6352 150.436 86.693C150.965 87.7508 151.693 88.5706 152.618 89.1523C153.57 89.7341 154.668 90.025 155.91 90.025Z" fill="black"/>
<path d="M124 13.9235L86 0V38.0765L124 52V13.9235Z" fill="black"/>
<rect width="38" height="38" transform="matrix(-1 0 0 1 83 14)" fill="black"/>
</svg>
